<?xml version="1.0" encoding="UTF-8" standalone="no"?>
<svg
   xmlns:dc="http://purl.org/dc/elements/1.1/"
   xmlns:cc="http://creativecommons.org/ns#"
   xmlns:rdf="http://www.w3.org/1999/02/22-rdf-syntax-ns#"
   xmlns:svg="http://www.w3.org/2000/svg"
   xmlns="http://www.w3.org/2000/svg"
   xmlns:sodipodi="http://sodipodi.sourceforge.net/DTD/sodipodi-0.dtd"
   xmlns:inkscape="http://www.inkscape.org/namespaces/inkscape"
   version="1.1"
   id="svg28"
   xml:space="preserve"
   width="616.48383"
   height="325.00266"
   viewBox="0 0 616.48383 325.00266"
   sodipodi:docname="logo.svg"
   inkscape:version="1.0.1 (3bc2e813f5, 2020-09-07)"><metadata
     id="metadata34"><rdf:RDF><cc:Work
         rdf:about=""><dc:format>image/svg+xml</dc:format><dc:type
           rdf:resource="http://purl.org/dc/dcmitype/StillImage" /><dc:title></dc:title></cc:Work></rdf:RDF></metadata><defs
     id="defs32" /><sodipodi:namedview
     pagecolor="#ffffff"
     bordercolor="#666666"
     borderopacity="1"
     objecttolerance="10"
     gridtolerance="10"
     guidetolerance="10"
     inkscape:pageopacity="0"
     inkscape:pageshadow="2"
     inkscape:window-width="3436"
     inkscape:window-height="1412"
     id="namedview30"
     showgrid="false"
     inkscape:zoom="1.4719244"
     inkscape:cx="182.16621"
     inkscape:cy="159.57928"
     inkscape:window-x="0"
     inkscape:window-y="24"
     inkscape:window-maximized="1"
     inkscape:current-layer="g36" /><g
     id="g36"
     inkscape:groupmode="layer"
     inkscape:label="ink_ext_XXXXXX"
     transform="matrix(1.3333333,0,0,-1.3333333,1.941695e-4,807.11065)"><path
       d="m 379.928,546.346 -2.51,0.406 -0.055,0.011 -0.102,0.05 -1.895,0.951 -0.04,0.018 -0.138,-0.13 -0.665,-0.747 -1.072,-1.717 -0.435,-2.042 -0.293,2.255 0.324,1.126 0.525,1.043 0.7,0.947 0.214,0.225 0.116,0.113 0.159,0.129 0.226,0.119 0.307,0.042 0.148,-0.022 0.055,-0.016 0.105,-0.033 0.299,-0.122 1.916,-1.038 2.309,-0.75 2.366,-1.003 -2.564,0.185 m 4.051,-2.295 2.365,-1.003 -2.562,0.185 -2.51,0.406 -0.057,0.012 -0.1,0.05 -1.896,0.951 -0.041,0.018 -0.136,-0.131 -0.666,-0.746 -1.072,-1.718 -0.434,-2.042 -0.292,2.256 0.323,1.125 0.524,1.043 0.7,0.948 0.213,0.225 0.118,0.113 0.159,0.128 0.225,0.12 0.308,0.042 0.147,-0.022 0.055,-0.016 0.106,-0.034 0.298,-0.122 1.916,-1.038 2.309,-0.75 m -6.445,-105.064 -0.01,-0.001 0.037,0.021 -0.027,-0.02 m 70.761,-19.971 -0.203,7.23 0.747,-0.289 2.412,-0.344 2.401,0.544 1.257,0.674 -0.01,-0.489 -0.301,-3.884 -6.303,-3.442 M 432,415.851 l -0.246,-0.019 -0.238,-0.065 -56.822,-1.251 3.264,-0.073 17.09,1.278 8.185,2.742 1.864,1.081 1.813,1.112 3.621,2.226 7.396,4.118 4.061,0.981 1.513,-0.113 1.829,-1.693 14.831,-9.262 -8.161,-1.062 m -88.804,11.198 1.329,-0.178 3.041,-0.217 3.054,0.104 6.035,1.011 11.279,4.752 5.14,3.326 2.456,1.782 1.195,0.859 0.566,0.372 0.219,0.119 0.014,0.008 -0.08,-0.01 -0.005,0.04 5.806,1.417 9.454,2.46 17.434,9.305 13.251,-24.204 -1.395,0.15 -4.185,-0.841 -7.604,-3.857 -3.706,-2.085 -3.704,-2.022 -7.979,-2.331 -16.799,-0.605 -16.84,1.557 -0.023,-0.21 -17.953,9.298 m -9.566,29.528 20,-9.695 13.543,-7.656 5.666,-0.623 -1.138,-0.922 -4.797,-3.489 -10.61,-5.165 -5.777,-1.294 -2.959,-0.26 -2.976,0.049 -2.481,0.248 -11.806,8.774 3.335,20.033 m 22.602,23.115 49.212,-21.799 2.346,-2.564 -0.149,0.025 -1.277,0.376 -1.24,0.489 -1.208,0.568 -1.18,0.623 -2.308,1.341 -8.746,6.133 -4.196,3.311 -4.481,3.056 -10.192,3.71 -10.844,0.681 -10.734,-1.672 -10.294,-3.515 -1.541,-0.708 16.832,9.945 m 53.614,-20.019 -0.123,0.769 2.779,12.259 0.921,3.286 0.138,-0.772 1.584,-10.909 0.109,-1.359 0.038,-1.334 -0.542,-2.555 -1.531,-5.358 -0.433,-3.157 -2.94,9.13 m -74.315,4.866 0.044,0.175 1.728,1.173 4.591,2.485 9.847,3.701 20.841,1.6 9.954,-3.284 4.444,-2.838 4.313,-3.193 8.968,-5.888 2.362,-1.278 1.206,-0.591 1.232,-0.534 1.265,-0.454 1.3,-0.34 0.246,-0.034 0.535,-0.585 -16.294,-9.21 -9.656,-2.514 -27.218,6.015 -21.013,10.196 1.305,5.398 m 108.723,-46.736 -17.318,10.438 -4.138,4.683 -0.242,2.366 0.13,4.731 1.591,4.378 1.424,1.843 1.614,1.778 2.783,3.978 1.245,4.753 -0.004,3.623 4.143,-11.234 5.683,-13.853 1.67,-3.417 0.959,-1.702 1.204,-1.724 0.42,-0.453 0.26,-0.236 0.228,-0.182 0.665,-0.475 0.145,-8.604 -2.462,-0.691 m -35.249,86.66 -2.84,8.971 -0.128,0.619 0.608,0.923 1.085,4.517 -0.024,2.202 -0.05,1.083 0.055,1.07 -0.3,-1.051 -0.195,-1.07 -0.457,-2.088 -1.739,-3.561 -0.102,-0.107 -2.001,-0.544 -10.119,3.396 -5.441,2.054 -0.076,-0.026 -0.889,0.789 -3.439,1.862 -0.352,0.148 0.007,0.015 -0.095,0.023 -0.297,0.135 0.007,0.091 0.369,1.689 1.083,3.249 4.683,-0.842 -4.807,1.462 -0.214,0.065 -0.123,-0.228 -1.652,-3.334 -0.669,-1.832 -0.033,-0.164 -0.341,0.032 -1.059,-0.028 -0.931,-0.453 0.93,0.126 0.918,-0.283 0.532,-0.243 0.162,-0.265 0.312,-0.269 0.848,-0.526 2.779,-2.024 0.506,-0.58 -0.401,-0.795 -4.326,-2.231 -5.856,0.683 -0.845,0.363 -1.472,0.58 -1.148,0.884 -0.441,0.889 0.01,0.07 0.35,1.943 1.668,7.799 0.871,3.899 0.786,3.92 -1.103,-3.836 -1.19,-3.813 -2.312,-7.665 -0.102,-0.383 -2.378,-1.837 -4.633,1.138 8.226,21.219 -10.216,-19.843 -2.408,1.657 0.022,2.327 8.643,17.347 -10.281,-15.544 -0.494,0.364 -1.674,1.313 0.277,0.49 13.977,20.485 -0.223,-0.33 -0.525,-1.043 -0.322,-1.127 0.292,-2.254 0.434,2.042 1.072,1.718 0.666,0.746 0.137,0.131 0.04,-0.018 1.896,-0.952 0.102,-0.05 0.056,-0.011 2.51,-0.405 2.562,-0.186 -2.365,1.003 -2.31,0.75 -1.916,1.038 -0.297,0.122 -0.029,0.009 0.037,0.01 10.445,-2.639 31.705,-10.343 18.71,-33.423 24.403,-42.93 0.653,-25.442 -1.119,-4.348 -1.19,-1.781 -2.214,-1.858 -2.453,-0.181 -1.31,0.582 -0.646,0.431 -0.141,0.104 -0.086,0.072 -0.22,0.222 -0.962,1.297 -0.918,1.51 -1.705,3.213 -6.062,13.489 -5.582,13.771 -10.643,27.787 -5.233,13.935 -2.644,6.957 -1.355,3.466 -1.472,3.418 1.357,-3.461 1.239,-3.508 2.411,-7.039 4.767,-14.1 9.118,-26.428 0.39,-3.358 0.238,-4.691 -1.004,-4.457 -2.546,-3.911 -1.535,-1.809 -0.76,-0.955 -0.188,-0.24 -0.16,-0.261 -0.315,-0.522 -1.492,-4.584 0.03,-4.792 0.3,-2.2 -8.59,16.462 0.415,4.115 1.463,5.306 0.563,2.854 -0.051,1.434 -0.126,1.402 -1.702,11.007 -1.098,5.82 0.334,2.565 -4.897,20.423 m 51.126,-78.217 0.381,4.456 1.347,5.265 -1.78,30.233 -23.708,41.923 -19.668,34.708 -34.227,11.718 -9.766,2.438 -22.175,-24.004 -0.9,-1.567 -0.54,-0.815 0.127,-0.971 4.128,-5.222 0.461,-2.421 5.326,-4.446 5.735,-2.712 3.424,-0.086 12.441,-3.552 8.346,3.868 0.595,-0.438 11.986,-4.681 2.401,-7.204 4.625,-18.202 -1.951,-10.792 -1.571,-7.975 -50.168,19.011 -24.402,-18.382 -0.148,-0.601 -4.236,-32.592 36.013,-21.206 1.516,-0.367 68.929,-0.974 26.993,10.485 0.466,5.105"
       style="fill:#274596;fill-opacity:1;fill-rule:nonzero;stroke:none;stroke-width:0.1"
       id="path40" /><path
       d="m 379.928,546.346 -2.51,0.406 -0.055,0.011 -0.102,0.05 -1.895,0.951 -0.04,0.018 -0.138,-0.13 -0.665,-0.747 -1.072,-1.717 -0.435,-2.042 -0.293,2.255 0.324,1.126 0.525,1.043 0.7,0.947 0.214,0.225 0.116,0.113 0.159,0.129 0.226,0.119 0.307,0.042 0.148,-0.022 0.055,-0.016 0.105,-0.033 0.299,-0.122 1.916,-1.038 2.309,-0.75 2.366,-1.003 -2.564,0.185 m 4.051,-2.295 2.365,-1.003 -2.562,0.185 -2.51,0.406 -0.057,0.012 -0.1,0.05 -1.896,0.951 -0.041,0.018 -0.136,-0.131 -0.666,-0.746 -1.072,-1.718 -0.434,-2.042 -0.292,2.256 0.323,1.125 0.524,1.043 0.7,0.948 0.213,0.225 0.118,0.113 0.159,0.128 0.225,0.12 0.308,0.042 0.147,-0.022 0.055,-0.016 0.106,-0.034 0.298,-0.122 1.916,-1.038 2.309,-0.75 m -6.445,-105.064 -0.01,-0.001 0.037,0.021 -0.027,-0.02 m 70.761,-19.971 -0.203,7.23 0.747,-0.289 2.412,-0.344 2.401,0.544 1.257,0.674 -0.01,-0.489 -0.301,-3.884 -6.303,-3.442 M 432,415.851 l -0.246,-0.019 -0.238,-0.065 -56.822,-1.251 3.264,-0.073 17.09,1.278 8.185,2.742 1.864,1.081 1.813,1.112 3.621,2.226 7.396,4.118 4.061,0.981 1.513,-0.113 1.829,-1.693 14.831,-9.262 -8.161,-1.062 m -88.804,11.198 1.329,-0.178 3.041,-0.217 3.054,0.104 6.035,1.011 11.279,4.752 5.14,3.326 2.456,1.782 1.195,0.859 0.566,0.372 0.219,0.119 0.014,0.008 -0.08,-0.01 -0.005,0.04 5.806,1.417 9.454,2.46 17.434,9.305 13.251,-24.204 -1.395,0.15 -4.185,-0.841 -7.604,-3.857 -3.706,-2.085 -3.704,-2.022 -7.979,-2.331 -16.799,-0.605 -16.84,1.557 -0.023,-0.21 -17.953,9.298 m -9.566,29.528 20,-9.695 13.543,-7.656 5.666,-0.623 -1.138,-0.922 -4.797,-3.489 -10.61,-5.165 -5.777,-1.294 -2.959,-0.26 -2.976,0.049 -2.481,0.248 -11.806,8.774 3.335,20.033 m 22.602,23.115 49.212,-21.799 2.346,-2.564 -0.149,0.025 -1.277,0.376 -1.24,0.489 -1.208,0.568 -1.18,0.623 -2.308,1.341 -8.746,6.133 -4.196,3.311 -4.481,3.056 -10.192,3.71 -10.844,0.681 -10.734,-1.672 -10.294,-3.515 -1.541,-0.708 16.832,9.945 m 53.614,-20.019 -0.123,0.769 2.779,12.259 0.921,3.286 0.138,-0.772 1.584,-10.909 0.109,-1.359 0.038,-1.334 -0.542,-2.555 -1.531,-5.358 -0.433,-3.157 -2.94,9.13 m -74.315,4.866 0.044,0.175 1.728,1.173 4.591,2.485 9.847,3.701 20.841,1.6 9.954,-3.284 4.444,-2.838 4.313,-3.193 8.968,-5.888 2.362,-1.278 1.206,-0.591 1.232,-0.534 1.265,-0.454 1.3,-0.34 0.246,-0.034 0.535,-0.585 -16.294,-9.21 -9.656,-2.514 -27.218,6.015 -21.013,10.196 1.305,5.398 m 108.723,-46.736 -17.318,10.438 -4.138,4.683 -0.242,2.366 0.13,4.731 1.591,4.378 1.424,1.843 1.614,1.778 2.783,3.978 1.245,4.753 -0.004,3.623 4.143,-11.234 5.683,-13.853 1.67,-3.417 0.959,-1.702 1.204,-1.724 0.42,-0.453 0.26,-0.236 0.228,-0.182 0.665,-0.475 0.145,-8.604 -2.462,-0.691 m -35.249,86.66 -2.84,8.971 -0.128,0.619 0.608,0.923 1.085,4.517 -0.024,2.202 -0.05,1.083 0.055,1.07 -0.3,-1.051 -0.195,-1.07 -0.457,-2.088 -1.739,-3.561 -0.102,-0.107 -2.001,-0.544 -10.119,3.396 -5.441,2.054 -0.076,-0.026 -0.889,0.789 -3.439,1.862 -0.352,0.148 0.007,0.015 -0.095,0.023 -0.297,0.135 0.007,0.091 0.369,1.689 1.083,3.249 4.683,-0.842 -4.807,1.462 -0.214,0.065 -0.123,-0.228 -1.652,-3.334 -0.669,-1.832 -0.033,-0.164 -0.341,0.032 -1.059,-0.028 -0.931,-0.453 0.93,0.126 0.918,-0.283 0.532,-0.243 0.162,-0.265 0.312,-0.269 0.848,-0.526 2.779,-2.024 0.506,-0.58 -0.401,-0.795 -4.326,-2.231 -5.856,0.683 -0.845,0.363 -1.472,0.58 -1.148,0.884 -0.441,0.889 0.01,0.07 0.35,1.943 1.668,7.799 0.871,3.899 0.786,3.92 -1.103,-3.836 -1.19,-3.813 -2.312,-7.665 -0.102,-0.383 -2.378,-1.837 -4.633,1.138 8.226,21.219 -10.216,-19.843 -2.408,1.657 0.022,2.327 8.643,17.347 -10.281,-15.544 -0.494,0.364 -1.674,1.313 0.277,0.49 13.977,20.485 -0.223,-0.33 -0.525,-1.043 -0.322,-1.127 0.292,-2.254 0.434,2.042 1.072,1.718 0.666,0.746 0.137,0.131 0.04,-0.018 1.896,-0.952 0.102,-0.05 0.056,-0.011 2.51,-0.405 2.562,-0.186 -2.365,1.003 -2.31,0.75 -1.916,1.038 -0.297,0.122 -0.029,0.009 0.037,0.01 10.445,-2.639 31.705,-10.343 18.71,-33.423 24.403,-42.93 0.653,-25.442 -1.119,-4.348 -1.19,-1.781 -2.214,-1.858 -2.453,-0.181 -1.31,0.582 -0.646,0.431 -0.141,0.104 -0.086,0.072 -0.22,0.222 -0.962,1.297 -0.918,1.51 -1.705,3.213 -6.062,13.489 -5.582,13.771 -10.643,27.787 -5.233,13.935 -2.644,6.957 -1.355,3.466 -1.472,3.418 1.357,-3.461 1.239,-3.508 2.411,-7.039 4.767,-14.1 9.118,-26.428 0.39,-3.358 0.238,-4.691 -1.004,-4.457 -2.546,-3.911 -1.535,-1.809 -0.76,-0.955 -0.188,-0.24 -0.16,-0.261 -0.315,-0.522 -1.492,-4.584 0.03,-4.792 0.3,-2.2 -8.59,16.462 0.415,4.115 1.463,5.306 0.563,2.854 -0.051,1.434 -0.126,1.402 -1.702,11.007 -1.098,5.82 0.334,2.565 -4.897,20.423 m 51.126,-78.217 0.381,4.456 1.347,5.265 -1.78,30.233 -23.708,41.923 -19.668,34.708 -34.227,11.718 -9.766,2.438 -22.175,-24.004 -0.9,-1.567 -0.54,-0.815 0.127,-0.971 4.128,-5.222 0.461,-2.421 5.326,-4.446 5.735,-2.712 3.424,-0.086 12.441,-3.552 8.346,3.868 0.595,-0.438 11.986,-4.681 2.401,-7.204 4.625,-18.202 -1.951,-10.792 -1.571,-7.975 -50.168,19.011 -24.402,-18.382 -0.148,-0.601 -4.236,-32.592 36.013,-21.206 1.516,-0.367 68.929,-0.974 26.993,10.485 0.466,5.105"
       style="fill:none;stroke:#299540;stroke-width:1;stroke-linecap:butt;stroke-linejoin:miter;stroke-miterlimit:10;stroke-dasharray:none;stroke-opacity:1"
       id="path42" /><path
       d="m 78.3164,550.002 -2.4379,-0.179 2.2496,0.957 2.1953,0.716 1.8215,0.989 0.284,0.117 0.1004,0.031 0.0523,0.016 0.1395,0.021 0.293,-0.04 0.2156,-0.113 0.1508,-0.122 0.1113,-0.108 0.2035,-0.214 0.6664,-0.9 0.5008,-0.991 0.309,-1.071 -0.2754,-2.145 -0.4156,1.942 -1.0223,1.632 -0.634,0.71 -0.1304,0.123 -0.0383,-0.017 -1.8024,-0.906 -0.0961,-0.049 -0.0535,-0.01 -2.3871,-0.389 m -3.85,-2.187 2.1953,0.715 1.8207,0.99 0.2844,0.117 0.1008,0.032 0.0519,0.015 0.1395,0.021 0.2937,-0.04 0.2141,-0.113 0.1516,-0.122 0.1113,-0.108 0.2039,-0.214 0.6668,-0.9 0.5,-0.992 0.309,-1.07 -0.2754,-2.146 -0.4156,1.942 -1.0219,1.633 -0.634,0.709 -0.1301,0.124 -0.0386,-0.017 -1.8024,-0.907 -0.0961,-0.048 -0.0531,-0.01 -2.3867,-0.389 -2.4387,-0.179 2.2496,0.957 m 6.2481,-99.935 -0.0254,0.018 0.0351,-0.019 -0.0097,10e-4 m -67.2899,-19.078 -5.99882,3.268 -0.29062,3.695 -0.00977,0.463 1.19609,-0.638 2.28402,-0.515 2.2941,0.33 0.7109,0.275 -0.1859,-6.878 m 15.5055,-2.992 -7.7645,1.001 14.0981,8.827 1.7367,1.613 1.4394,0.109 3.8641,-0.928 7.041,-3.91 3.4465,-2.113 1.7262,-1.056 1.7746,-1.026 7.7883,-2.6 16.2593,-1.196 3.104,0.072 -54.0536,1.127 -0.2265,0.062 -0.2336,0.018 m 84.4619,10.751 -17.0678,-8.865 -0.0219,0.199 -16.0179,-1.499 -15.9805,0.557 -7.5926,2.208 -3.5254,1.919 -3.5273,1.979 -7.2383,3.661 -3.9812,0.796 -1.3278,-0.144 12.5782,23.038 16.5949,-8.831 8.9961,-2.33 5.5242,-1.342 -0.0047,-0.038 -0.0758,0.009 0.0125,-0.007 0.2098,-0.113 0.5375,-0.353 1.1383,-0.816 2.3386,-1.692 4.893,-3.158 10.7341,-4.508 5.743,-0.956 2.904,-0.094 2.893,0.209 1.264,0.171 m 9.066,28.1 3.195,-19.052 -11.22,-8.36 -2.36,-0.238 -2.831,-0.051 -2.815,0.245 -5.497,1.224 -10.098,4.901 -4.5672,3.313 -1.0839,0.877 5.3886,0.598 12.8745,7.298 19.014,9.245 m -21.526,21.962 16.023,-9.44 -1.466,0.671 -9.797,3.331 -10.2131,1.579 -10.3144,-0.66 -9.6907,-3.54 -4.259,-2.912 -3.9871,-3.155 -8.3132,-5.843 -2.1942,-1.278 -1.1215,-0.595 -1.148,-0.541 -1.1797,-0.466 -1.2145,-0.36 -0.141,-0.023 2.2282,2.441 46.7882,20.791 m -51.2191,-19.277 -3.3727,-8.478 -0.2101,3.024 -1.1094,5.184 -0.3516,2.459 0.1196,1.264 0.191,1.282 2.2,10.253 0.1801,0.725 0.664,-3.179 1.8551,-11.812 -0.166,-0.722 m 70.9281,4.887 1.247,-5.133 -19.976,-9.723 -25.8847,-5.753 -9.1882,2.381 -15.5098,8.743 0.5086,0.557 0.234,0.033 1.2359,0.325 1.2024,0.434 1.1718,0.509 1.1465,0.563 2.2449,1.218 8.5254,5.612 4.0977,3.042 4.225,2.705 9.4652,3.134 19.8263,-1.498 9.371,-3.51 4.37,-2.358 1.646,-1.115 0.041,-0.166 m -103.3703,-44.58 -2.3426,0.655 0.1285,8.184 0.6325,0.453 0.2156,0.173 0.2476,0.226 0.3989,0.43 1.1433,1.642 0.9094,1.62 1.5867,3.252 5.3899,13.185 3.9277,10.69 8e-4,-3.446 1.1898,-4.52 2.652,-3.781 1.5379,-1.69 1.3566,-1.75 1.5176,-4.164 0.1293,-4.5 -0.2277,-2.252 -3.9309,-4.459 -16.4629,-9.948 m 33.4336,82.476 -4.634,-19.434 0.3203,-2.44 -1.0379,-5.537 -1.6066,-10.472 -0.1191,-1.333 -0.0473,-1.366 0.5391,-2.714 1.3972,-5.045 0.3996,-3.915 -8.1519,-15.668 0.2828,2.093 0.0234,4.558 -1.425,4.359 -0.3011,0.496 -0.1512,0.249 -0.1797,0.228 -0.7234,0.907 -1.4622,1.72 -2.4265,3.716 -0.9598,4.239 0.2203,4.463 0.368,3.195 8.6437,25.15 4.5188,13.417 2.2859,6.699 1.1746,3.338 1.2868,3.294 -1.3961,-3.252 -1.286,-3.299 -2.5074,-6.622 -4.9621,-13.261 -10.093,-26.444 -5.2937,-13.106 -5.752,-12.838 -1.6179,-3.058 -0.8715,-1.439 -0.9141,-1.234 -0.209,-0.211 -0.0824,-0.069 -0.1324,-0.099 -0.6145,-0.411 -1.2457,-0.555 -2.33317,0.17 -2.1086,1.764 -1.13476,1.694 -1.06914,4.134 0.59375,24.203 23.16442,40.864 17.7606,31.815 30.148,9.875 9.9328,2.522 0.0352,-0.01 -0.0266,-0.009 -0.2836,-0.116 -1.8214,-0.99 -2.1961,-0.715 -2.2485,-0.958 2.4375,0.179 2.3867,0.389 0.0532,0.011 0.0964,0.048 1.8024,0.907 0.0387,0.017 0.1304,-0.124 0.6336,-0.709 1.0227,-1.633 0.4152,-1.942 0.2754,2.145 -0.3086,1.071 -0.5008,0.991 -0.2121,0.315 13.3181,-19.471 0.265,-0.466 -1.591,-1.251 -0.469,-0.347 -9.7977,14.775 8.2414,-16.492 0.0231,-2.213 -2.2895,-1.579 -9.7398,18.864 7.8492,-20.175 -4.4063,-1.088 -2.2648,1.745 -0.0965,0.364 -2.2086,7.289 -1.1351,3.626 -1.0543,3.647 0.7519,-3.728 0.8324,-3.707 1.5957,-7.416 0.3356,-1.849 0.0098,-0.066 -0.4196,-0.847 -1.0898,-0.842 -1.4004,-0.554 -0.8031,-0.346 -5.5692,-0.656 -4.1179,2.118 -0.3821,0.755 0.4797,0.553 2.6422,1.928 0.8051,0.502 0.2976,0.256 0.1543,0.251 0.5043,0.232 0.8735,0.27 0.8847,-0.118 -0.8863,0.429 -1.007,0.026 -0.3242,-0.031 -0.0325,0.156 -0.6383,1.743 -1.5753,3.168 -0.1172,0.218 -0.2032,-0.062 -4.5714,-1.397 4.4543,0.807 1.0336,-3.089 0.3531,-1.607 0.0066,-0.087 -0.2828,-0.129 -0.0891,-0.021 0.0063,-0.015 -0.3344,-0.141 -3.2703,-1.774 -0.8441,-0.752 -0.0723,0.025 -5.1738,-1.96 -9.6211,-3.242 -1.9043,0.515 -0.0977,0.101 -1.6582,3.385 -0.4375,1.987 -0.1859,1.017 -0.2871,0.999 0.0547,-1.017 -0.0469,-1.03 -0.0199,-2.095 1.0363,-4.296 0.5797,-0.877 -0.1211,-0.589 -2.6922,-8.536 m -48.54649,-74.462 0.45,-4.856 25.68829,-9.943 65.5684,1.004 1.4414,0.351 34.2331,20.212 -4.065,30.998 -0.143,0.572 -23.232,17.458 -47.7013,-18.139 -1.5028,7.584 -1.8683,10.263 4.3789,17.32 2.2765,6.856 11.3957,4.466 0.5661,0.417 7.9437,-3.669 11.8297,3.392 3.257,0.085 5.452,2.587 5.0618,4.235 0.436,2.304 3.92,4.972 0.12,0.923 -0.515,0.775 -0.857,1.489 -21.1217,22.81 -9.2863,-2.33 -32.5449,-11.186 -18.67,-33.038 -22.50543,-39.906 -1.660154,-28.761 1.287504,-5.007 0.36679,-4.238"
       style="fill:#274596;fill-opacity:1;fill-rule:nonzero;stroke:none;stroke-width:0.1"
       id="path44" /><path
       d="m 78.3164,550.002 -2.4379,-0.179 2.2496,0.957 2.1953,0.716 1.8215,0.989 0.284,0.117 0.1004,0.031 0.0523,0.016 0.1395,0.021 0.293,-0.04 0.2156,-0.113 0.1508,-0.122 0.1113,-0.108 0.2035,-0.214 0.6664,-0.9 0.5008,-0.991 0.309,-1.071 -0.2754,-2.145 -0.4156,1.942 -1.0223,1.632 -0.634,0.71 -0.1304,0.123 -0.0383,-0.017 -1.8024,-0.906 -0.0961,-0.049 -0.0535,-0.01 -2.3871,-0.389 m -3.85,-2.187 2.1953,0.715 1.8207,0.99 0.2844,0.117 0.1008,0.032 0.0519,0.015 0.1395,0.021 0.2937,-0.04 0.2141,-0.113 0.1516,-0.122 0.1113,-0.108 0.2039,-0.214 0.6668,-0.9 0.5,-0.992 0.309,-1.07 -0.2754,-2.146 -0.4156,1.942 -1.0219,1.633 -0.634,0.709 -0.1301,0.124 -0.0386,-0.017 -1.8024,-0.907 -0.0961,-0.048 -0.0531,-0.01 -2.3867,-0.389 -2.4387,-0.179 2.2496,0.957 m 6.2481,-99.935 -0.0254,0.018 0.0351,-0.019 -0.0097,10e-4 m -67.2899,-19.078 -5.99882,3.268 -0.29062,3.695 -0.00977,0.463 1.19609,-0.638 2.28402,-0.515 2.2941,0.33 0.7109,0.275 -0.1859,-6.878 m 15.5055,-2.992 -7.7645,1.001 14.0981,8.827 1.7367,1.613 1.4394,0.109 3.8641,-0.928 7.041,-3.91 3.4465,-2.113 1.7262,-1.056 1.7746,-1.026 7.7883,-2.6 16.2593,-1.196 3.104,0.072 -54.0536,1.127 -0.2265,0.062 -0.2336,0.018 m 84.4619,10.751 -17.0678,-8.865 -0.0219,0.199 -16.0179,-1.499 -15.9805,0.557 -7.5926,2.208 -3.5254,1.919 -3.5273,1.979 -7.2383,3.661 -3.9812,0.796 -1.3278,-0.144 12.5782,23.038 16.5949,-8.831 8.9961,-2.33 5.5242,-1.342 -0.0047,-0.038 -0.0758,0.009 0.0125,-0.007 0.2098,-0.113 0.5375,-0.353 1.1383,-0.816 2.3386,-1.692 4.893,-3.158 10.7341,-4.508 5.743,-0.956 2.904,-0.094 2.893,0.209 1.264,0.171 m 9.066,28.1 3.195,-19.052 -11.22,-8.36 -2.36,-0.238 -2.831,-0.051 -2.815,0.245 -5.497,1.224 -10.098,4.901 -4.5672,3.313 -1.0839,0.877 5.3886,0.598 12.8745,7.298 19.014,9.245 m -21.526,21.962 16.023,-9.44 -1.466,0.671 -9.797,3.331 -10.2131,1.579 -10.3144,-0.66 -9.6907,-3.54 -4.259,-2.912 -3.9871,-3.155 -8.3132,-5.843 -2.1942,-1.278 -1.1215,-0.595 -1.148,-0.541 -1.1797,-0.466 -1.2145,-0.36 -0.141,-0.023 2.2282,2.441 46.7882,20.791 m -51.2191,-19.277 -3.3727,-8.478 -0.2101,3.024 -1.1094,5.184 -0.3516,2.459 0.1196,1.264 0.191,1.282 2.2,10.253 0.1801,0.725 0.664,-3.179 1.8551,-11.812 -0.166,-0.722 m 70.9281,4.887 1.247,-5.133 -19.976,-9.723 -25.8847,-5.753 -9.1882,2.381 -15.5098,8.743 0.5086,0.557 0.234,0.033 1.2359,0.325 1.2024,0.434 1.1718,0.509 1.1465,0.563 2.2449,1.218 8.5254,5.612 4.0977,3.042 4.225,2.705 9.4652,3.134 19.8263,-1.498 9.371,-3.51 4.37,-2.358 1.646,-1.115 0.041,-0.166 m -103.3703,-44.58 -2.3426,0.655 0.1285,8.184 0.6325,0.453 0.2156,0.173 0.2476,0.226 0.3989,0.43 1.1433,1.642 0.9094,1.62 1.5867,3.252 5.3899,13.185 3.9277,10.69 8e-4,-3.446 1.1898,-4.52 2.652,-3.781 1.5379,-1.69 1.3566,-1.75 1.5176,-4.164 0.1293,-4.5 -0.2277,-2.252 -3.9309,-4.459 -16.4629,-9.948 m 33.4336,82.476 -4.634,-19.434 0.3203,-2.44 -1.0379,-5.537 -1.6066,-10.472 -0.1191,-1.333 -0.0473,-1.366 0.5391,-2.714 1.3972,-5.045 0.3996,-3.915 -8.1519,-15.668 0.2828,2.093 0.0234,4.558 -1.425,4.359 -0.3011,0.496 -0.1512,0.249 -0.1797,0.228 -0.7234,0.907 -1.4622,1.72 -2.4265,3.716 -0.9598,4.239 0.2203,4.463 0.368,3.195 8.6437,25.15 4.5188,13.417 2.2859,6.699 1.1746,3.338 1.2868,3.294 -1.3961,-3.252 -1.286,-3.299 -2.5074,-6.622 -4.9621,-13.261 -10.093,-26.444 -5.2937,-13.106 -5.752,-12.838 -1.6179,-3.058 -0.8715,-1.439 -0.9141,-1.234 -0.209,-0.211 -0.0824,-0.069 -0.1324,-0.099 -0.6145,-0.411 -1.2457,-0.555 -2.33317,0.17 -2.1086,1.764 -1.13476,1.694 -1.06914,4.134 0.59375,24.203 23.16442,40.864 17.7606,31.815 30.148,9.875 9.9328,2.522 0.0352,-0.01 -0.0266,-0.009 -0.2836,-0.116 -1.8214,-0.99 -2.1961,-0.715 -2.2485,-0.958 2.4375,0.179 2.3867,0.389 0.0532,0.011 0.0964,0.048 1.8024,0.907 0.0387,0.017 0.1304,-0.124 0.6336,-0.709 1.0227,-1.633 0.4152,-1.942 0.2754,2.145 -0.3086,1.071 -0.5008,0.991 -0.2121,0.315 13.3181,-19.471 0.265,-0.466 -1.591,-1.251 -0.469,-0.347 -9.7977,14.775 8.2414,-16.492 0.0231,-2.213 -2.2895,-1.579 -9.7398,18.864 7.8492,-20.175 -4.4063,-1.088 -2.2648,1.745 -0.0965,0.364 -2.2086,7.289 -1.1351,3.626 -1.0543,3.647 0.7519,-3.728 0.8324,-3.707 1.5957,-7.416 0.3356,-1.849 0.0098,-0.066 -0.4196,-0.847 -1.0898,-0.842 -1.4004,-0.554 -0.8031,-0.346 -5.5692,-0.656 -4.1179,2.118 -0.3821,0.755 0.4797,0.553 2.6422,1.928 0.8051,0.502 0.2976,0.256 0.1543,0.251 0.5043,0.232 0.8735,0.27 0.8847,-0.118 -0.8863,0.429 -1.007,0.026 -0.3242,-0.031 -0.0325,0.156 -0.6383,1.743 -1.5753,3.168 -0.1172,0.218 -0.2032,-0.062 -4.5714,-1.397 4.4543,0.807 1.0336,-3.089 0.3531,-1.607 0.0066,-0.087 -0.2828,-0.129 -0.0891,-0.021 0.0063,-0.015 -0.3344,-0.141 -3.2703,-1.774 -0.8441,-0.752 -0.0723,0.025 -5.1738,-1.96 -9.6211,-3.242 -1.9043,0.515 -0.0977,0.101 -1.6582,3.385 -0.4375,1.987 -0.1859,1.017 -0.2871,0.999 0.0547,-1.017 -0.0469,-1.03 -0.0199,-2.095 1.0363,-4.296 0.5797,-0.877 -0.1211,-0.589 -2.6922,-8.536 m -48.54649,-74.462 0.45,-4.856 25.68829,-9.943 65.5684,1.004 1.4414,0.351 34.2331,20.212 -4.065,30.998 -0.143,0.572 -23.232,17.458 -47.7013,-18.139 -1.5028,7.584 -1.8683,10.263 4.3789,17.32 2.2765,6.856 11.3957,4.466 0.5661,0.417 7.9437,-3.669 11.8297,3.392 3.257,0.085 5.452,2.587 5.0618,4.235 0.436,2.304 3.92,4.972 0.12,0.923 -0.515,0.775 -0.857,1.489 -21.1217,22.81 -9.2863,-2.33 -32.5449,-11.186 -18.67,-33.038 -22.50543,-39.906 -1.660154,-28.761 1.287504,-5.007 0.36679,-4.238"
       style="fill:none;stroke:#299540;stroke-width:1;stroke-linecap:butt;stroke-linejoin:miter;stroke-miterlimit:10;stroke-dasharray:none;stroke-opacity:1"
       id="path46" /><path
       d="m 223.339,552.589 c -2.518,-0.539 -4.316,-1.079 -5.394,-1.079 -1.079,0 -3.417,-0.899 -4.136,-1.258 -0.72,-0.359 1.259,-0.899 -2.518,-1.978 -3.777,-1.079 -4.676,-0.899 -5.754,-2.338 -1.078,-1.438 -0.72,-1.619 -1.439,-2.518 -0.719,-0.899 -2.877,-4.496 -3.956,-3.597 -1.078,0.9 -1.619,0.72 -2.517,1.619 -0.899,0.899 -1.439,2.158 -1.978,2.877 -0.54,0.72 -0.72,2.518 -0.899,3.597 -0.18,1.079 -1.799,3.596 0,3.236 1.797,-0.359 2.877,-0.18 3.416,0.18 0.54,0.359 1.079,1.619 1.079,1.619 0,0 -0.179,1.978 -0.72,3.057 -0.54,1.078 -0.179,1.978 -1.078,3.056 -0.899,1.079 -0.899,0.899 -2.158,1.978 -1.259,1.079 -0.899,1.619 -2.877,1.798 -1.978,0.18 -2.518,0.72 -3.237,0.54 -0.72,-0.18 -3.057,1.259 -0.54,1.438 2.517,0.18 4.855,-0.179 4.855,-0.179 0,0 3.237,1.439 2.159,1.618 -1.079,0.18 1.618,1.799 -0.899,1.259 -2.517,-0.539 -5.395,-1.259 -6.114,-1.438 -0.72,-0.18 -2.518,-0.36 -4.316,-0.9 -1.798,-0.539 -3.956,-0.36 -5.034,-1.618 -1.079,-1.259 0,-1.439 -1.079,-1.259 -1.079,0.18 0.899,1.259 -1.619,0 -2.517,-1.258 -1.798,-1.079 -3.056,-0.719 -1.259,0.359 -2.158,0.899 -2.158,0.899 0,0 1.619,0.18 -0.719,0.359 -2.339,0.18 -2.338,0.18 -3.237,1.259 -0.899,1.08 -0.359,1.079 0.18,1.439 0.539,0.359 0.899,1.08 0.899,1.08 v 0 l 7.193,0.898 c 0,0 2.517,0 3.776,0.9 1.259,0.899 0,0.899 3.776,1.618 3.776,0.718 2.698,1.079 4.676,0.719 1.977,-0.36 2.517,-0.36 4.675,-0.719 2.158,-0.36 2.697,0.179 4.675,-0.36 1.977,-0.539 2.877,-0.359 4.495,-0.359 h 5.035 c 2.518,0 4.855,1.438 5.754,0.539 0.899,-0.899 1.439,-0.539 4.496,-0.899 3.057,-0.359 4.315,0.36 5.574,0 1.258,-0.36 3.417,0.18 5.934,0 2.517,-0.18 3.777,0.18 4.675,0.18 0.899,0 1.798,1.258 3.057,0.18 1.259,-1.08 2.877,0.359 3.056,-1.08 0.18,-1.438 2.518,-0.359 0.181,-1.438 -2.338,-1.079 -1.979,-0.899 -3.597,-2.338 -1.619,-1.438 1.078,-2.697 -2.338,-3.955 -3.417,-1.26 -3.956,0.719 -4.855,-1.439 -0.899,-2.158 0,-2.697 -0.179,-3.776 -0.18,-1.079 -0.54,-1.259 -1.619,-2.158 -1.079,-0.899 -1.079,0 -3.596,-0.54 z m -42.617,-4.675 c 0,0 -1.438,0.899 -2.158,0.899 -0.719,0 0.001,0 1.08,-2.698 1.078,-2.697 -1.979,-0.359 -1.979,-0.359 0,0 -1.978,-0.54 -0.36,-2.338 1.619,-1.798 -1.618,-1.619 -2.697,-1.079 -1.078,0.54 -3.416,1.44 -4.675,2.338 -1.259,0.899 -0.54,1.618 1.258,2.158 1.799,0.54 1.979,1.079 2.518,1.618 0.54,0.54 -0.179,2.158 -1.078,4.316 -0.9,2.158 -0.539,0.54 -4.675,1.978 -4.136,1.439 -2.877,-0.359 -3.956,-0.899 -1.079,-0.539 -1.438,1.439 -1.978,1.978 -0.54,0.54 1.618,1.799 2.517,2.698 l 1.258,-1.26 c 0,0 0.898,0.359 3.596,0.899 2.698,0.539 2.877,0.18 4.316,-0.719 1.439,-0.9 1.259,-0.9 3.956,-1.26 2.697,-0.359 0.719,-2.157 0.719,-2.157 l 2.338,-2.338 0.719,-2.337 z m 165.736,-63.892 -2.637,0.239 -2.278,-0.12 c 0,0 -2.158,10e-4 -3.716,0.24 -1.559,0.239 -1.56,0 -2.159,0.599 -0.599,0.599 -1.917,0.72 -2.158,1.678 -0.24,0.958 -0.478,0.36 -1.078,0.599 -0.599,0.239 -0.84,-0.119 -1.079,0.12 -0.24,0.239 -1.438,0.12 -2.877,0.239 -1.438,0.12 -2.158,0.96 -3.717,2.039 -1.558,1.078 -2.517,1.318 -3.117,2.877 -0.599,1.558 -1.318,-1.199 -0.359,-2.997 0.959,-1.799 0.84,-1.8 0.959,-2.518 0.12,-0.719 0.478,-0.839 0.959,-2.637 0.48,-1.799 1.319,-1.079 2.158,-2.279 0.839,-1.198 1.559,0 3.356,0.36 1.799,0.36 1.078,0.839 2.877,2.638 1.799,1.798 0.84,0 1.679,-1.558 0.84,-1.559 0.72,-1.319 1.919,-2.518 1.198,-1.199 1.679,-0.959 2.518,-1.678 0.838,-0.72 -0.481,-1.798 -1.44,-2.877 -0.959,-1.08 -1.437,-1.199 -1.678,-1.919 -0.24,-0.719 -1.439,-2.278 -2.518,-3.117 -1.078,-0.839 -2.636,-2.277 -2.636,-2.277 0,0 -3.837,-1.798 -4.316,-1.798 -0.48,0 -4.795,-2.757 -4.795,-2.757 l -2.878,-0.72 c 0,0 -2.156,0.6 -2.278,1.079 -0.12,0.48 -1.198,2.517 -1.198,4.076 0,1.558 -2.278,3.956 -2.517,4.675 -0.241,0.72 -1.798,2.158 -2.278,2.877 -0.479,0.72 -1.679,2.638 -1.799,3.118 -0.118,0.479 -0.838,1.678 -1.438,3.356 -0.599,1.678 -3.117,3.957 -3.117,4.436 0,0.479 -1.438,1.798 -1.798,1.798 -0.36,0 -1.318,-0.36 -1.318,-0.36 0,0 -1.679,1.199 -1.799,1.558 -0.12,0.36 0.479,-1.559 0.839,-1.917 0.36,-0.361 3.117,-5.874 3.356,-6.954 0.24,-1.078 0.72,-1.439 1.079,-2.637 0.36,-1.198 0.839,-1.439 1.559,-3.597 0.72,-2.158 1.199,-1.558 1.798,-3.117 0.599,-1.557 0.838,-1.199 1.797,-2.397 0.96,-1.198 0.841,-0.48 1.919,-2.038 1.079,-1.558 1.56,-2.038 2.279,-3.236 0.718,-1.2 0.958,-2.158 1.317,-3.836 0.36,-1.679 1.199,-0.48 2.278,-0.72 0,0 1.797,0.598 5.275,0.36 3.477,-0.24 2.278,0.239 2.757,0.36 0.48,0.119 1.918,0.359 2.158,0.599 0.239,0.239 -0.959,-4.436 -1.198,-5.275 -0.241,-0.839 -1.559,-2.398 -1.559,-2.398 0,0 -0.959,-1.199 -1.078,-1.558 -0.12,-0.36 -1.799,-2.637 -2.638,-3.836 -0.839,-1.198 -2.278,-2.279 -2.878,-2.758 -0.598,-0.479 -1.437,-1.678 -2.277,-2.997 -0.839,-1.318 -3.236,-4.075 -3.236,-4.075 0,0 -1.559,-1.918 -1.918,-2.398 -0.36,-0.479 -1.2,-1.678 -1.2,-2.158 0,-0.478 -0.238,-2.038 0.241,-2.637 0.478,-0.599 0.599,-2.997 1.318,-4.915 0.72,-1.918 0.241,-1.438 0.481,-3.476 0.239,-2.038 0.239,-2.398 0.239,-2.757 0,-0.36 -0.72,-1.919 -0.72,-2.519 0,-0.599 -1.799,-1.798 -2.637,-2.277 -0.84,-0.479 -0.96,-0.839 -1.559,-1.198 -0.6,-0.361 -2.398,-2.638 -2.398,-2.638 0,0 -1.318,-1.797 -1.438,-3.596 -0.12,-1.798 0.24,-0.6 0.479,-0.96 0.24,-0.36 0,-1.918 0.24,-2.997 0.24,-1.079 -0.361,-0.598 -0.72,-0.719 -0.36,-0.12 -0.719,-0.839 -1.319,-1.199 -0.598,-0.36 -1.318,-0.958 -1.918,-2.517 -0.6,-1.56 -0.36,-0.958 -0.719,-1.439 -0.361,-0.479 -0.481,-0.839 -0.72,-1.438 -0.24,-0.6 -0.479,-1.439 -1.318,-1.678 -0.839,-0.24 -1.559,-1.559 -2.279,-2.158 -0.718,-0.6 -0.599,-0.6 -1.677,-1.56 -1.078,-0.959 -1.439,-1.438 -2.038,-2.037 -0.6,-0.598 -1.198,-1.08 -1.678,-0.84 -0.481,0.241 -1.319,-0.718 -1.918,-0.718 -0.6,0 -1.199,-0.72 -1.799,-0.72 -0.599,0 -1.198,-0.359 -1.918,0 -0.72,0.359 -1.679,-0.719 -2.158,-0.839 -0.48,-0.119 -1.798,0.719 -1.798,0.719 0,0 -0.479,0.84 -0.839,1.679 -0.36,0.839 -0.479,2.638 -0.599,3.357 -0.121,0.718 -0.6,1.198 -0.959,2.037 -0.361,0.84 -0.241,0.6 -0.72,1.199 -0.48,0.6 -0.959,1.078 -1.679,1.918 -0.719,0.839 -0.239,0.959 -0.359,1.439 -0.119,0.479 -0.239,1.559 -0.479,1.919 -0.241,0.359 -0.121,1.918 -0.121,2.517 0,0.6 -0.119,1.079 -0.359,2.037 -0.24,0.959 -0.719,1.2 -0.839,1.919 -0.12,0.719 -0.48,1.798 -1.079,2.877 -0.6,1.078 -1.079,2.399 -2.037,3.597 -0.959,1.198 -0.241,1.198 -0.361,2.396 -0.119,1.2 0.361,2.038 0.6,2.877 l 0.72,1.078 1.078,2.04 0.24,0.719 c 0,0 0.24,1.559 0.359,1.918 0.12,0.36 -0.359,1.439 -0.718,2.038 -0.361,0.599 0,0.719 0.119,1.559 0.12,0.838 -0.119,0.838 -0.239,2.037 -0.121,1.199 -0.719,1.319 -1.199,2.398 -0.48,1.08 -0.719,1.558 -0.84,2.397 -0.119,0.839 -1.078,2.158 -1.438,2.639 -0.359,0.478 -1.079,1.317 -2.158,2.276 -1.079,0.959 -0.599,1.438 -0.599,1.438 0,0 0.239,1.559 0.599,1.919 0.359,0.36 0.359,1.918 0.479,2.637 0.12,0.719 -0.598,2.637 -0.598,2.637 l -0.361,0.48 -1.079,1.198 c 0,0 -1.079,-0.12 -1.318,0.36 -0.239,0.48 -1.199,-0.239 -1.199,-0.239 l -0.719,0.119 c 0,0 -0.72,0.48 -0.839,0.96 -0.12,0.48 -0.72,0.84 -1.079,1.318 -0.36,0.48 -0.839,0.121 -1.199,0.481 -0.36,0.358 -0.719,0 -1.798,0.358 -1.079,0.359 -0.84,-0.358 -1.439,-0.119 -0.599,0.239 -1.198,-0.239 -1.677,-0.239 -0.481,0 -1.68,-0.721 -2.039,-0.721 -0.36,0 -1.559,-0.479 -2.039,-0.479 -0.478,0 -1.197,-0.599 -1.677,-0.479 -0.48,0.12 -0.839,-0.239 -1.439,0.12 -0.599,0.359 -1.438,-0.48 -1.798,-0.72 -0.359,-0.239 -1.677,-0.719 -2.158,-0.479 -0.479,0.24 -1.438,-0.361 -1.918,0 -0.479,0.361 -1.318,0.24 -1.678,0.599 -0.359,0.36 -1.438,0.599 -1.797,1.079 -0.361,0.48 -1.919,1.678 -1.919,1.678 0,0 -1.199,1.319 -1.439,1.678 -0.239,0.36 -1.198,1.679 -1.318,2.038 -0.12,0.36 -1.079,2.039 -1.199,2.398 -0.12,0.359 -0.959,1.079 -1.439,1.558 -0.48,0.48 -1.918,1.319 -1.918,1.319 0,0 -0.36,0.719 -0.12,1.079 0.24,0.359 -0.12,1.919 -0.12,1.919 0,0 -0.718,1.077 -0.479,1.677 0.239,0.6 0.958,1.918 1.198,2.637 0.24,0.72 0.24,1.32 0.48,2.878 0.24,1.558 0,1.318 -0.24,2.037 -0.24,0.72 -0.24,1.08 -0.36,3.118 l 0.24,0.599 c 0,0 0.959,1.558 1.319,2.877 0.359,1.319 1.079,2.158 1.319,2.518 0.239,0.359 0.718,0.838 1.199,1.557 0.479,0.72 1.079,1.439 1.438,1.679 0.36,0.239 0.958,0.959 0.958,0.959 0,0 0.96,1.079 1.679,1.558 0.72,0.48 2.398,2.038 2.398,2.038 0,0 0,1.078 -0.121,1.678 -0.12,0.6 0.839,1.559 0.839,1.559 l 0.36,1.079 2.398,1.319 1.198,1.198 1.799,2.397 v 0.001 c 0,0 0.6,-0.959 0.96,-1.202 0.36,-0.24 1.318,0 2.158,0.599 0.84,0.599 1.319,-0.121 2.038,0 0.719,0.12 1.199,0.24 2.037,-0.12 0.839,-0.36 1.678,0.36 2.278,0.839 0.599,0.479 0.96,0.24 0.96,0.24 0,0 1.318,0.479 5.994,0.839 4.675,0.36 1.558,0 2.517,0.36 0.959,0.359 2.159,0.478 2.997,0.838 0.839,0.361 0.36,-0.239 0.959,-0.599 0.599,-0.359 -0.719,-1.198 -0.839,-2.157 -0.12,-0.959 -0.24,-0.838 -0.12,-2.397 0.12,-1.559 1.439,-10e-4 2.398,-1.919 0.959,-1.917 1.918,-0.239 2.877,-0.839 0.959,-0.599 1.918,-0.6 3.836,-2.038 1.918,-1.438 2.277,-0.718 3.596,-0.839 1.319,-0.119 0.72,-0.599 0.959,0.36 0.241,0.959 1.32,1.079 1.32,2.997 0,1.918 0.238,0.599 0.719,0.12 0.479,-0.479 1.676,-0.36 2.397,-1.199 0.72,-0.839 2.398,-0.239 3.597,-0.958 1.198,-0.72 4.076,-10e-4 5.634,-0.361 1.558,-0.359 2.877,-0.239 3.957,-0.359 1.078,-0.12 1.438,0.24 2.037,0.359 0.599,0.12 1.079,0.72 2.397,3.238 0,0 0.481,1.318 0.84,3.236 0.359,1.918 -0.121,0.959 -0.24,1.798 -0.119,0.839 -1.558,0.119 -1.918,0.36 -0.361,0.24 -2.279,-0.12 -3.117,0.12 -0.839,0.24 -1.438,-0.24 -2.398,-0.12 -0.96,0.12 -1.919,0.001 -2.518,0.24 -0.599,0.239 -1.198,0.36 -2.038,1.199 -0.838,0.839 -1.438,0.359 -1.319,1.918 0.121,1.559 -0.48,1.798 0,3.237 0.48,1.438 -1.079,0.959 -2.397,0 -1.319,-0.959 -1.918,0.12 -2.518,0.239 -0.599,0.12 -0.478,-0.839 -0.599,-1.318 -0.121,-0.479 1.319,-1.917 1.798,-2.158 0.48,-0.24 -1.199,-0.719 -1.199,-0.719 0,0 -0.12,-0.84 -0.12,-1.319 0,-0.479 -0.479,-0.6 -0.839,-0.36 -0.359,0.24 -0.479,-0.479 -0.839,0.12 -0.359,0.599 -0.719,0.96 -1.079,1.439 -0.359,0.479 -0.839,1.678 -1.078,2.157 -0.24,0.48 -0.96,0.959 -1.199,1.199 -0.24,0.24 -0.479,1.439 -0.479,2.518 0,1.079 -0.96,1.678 -1.799,1.558 -0.838,-0.119 -0.959,0.6 -2.038,1.32 -1.078,0.719 -0.839,0.958 -2.038,1.678 -1.199,0.72 -2.037,1.558 -3.356,1.798 -1.32,0.24 -0.601,-0.839 -0.361,-1.678 0.242,-0.84 0.481,-0.6 1.32,-1.559 0.84,-0.959 1.198,-1.318 1.198,-1.318 0,0 1.799,-1.2 2.519,-1.32 0.719,-0.119 2.157,-2.158 2.756,-2.518 0.601,-0.359 0.361,-0.119 0.122,-0.598 -0.241,-0.48 -0.6,0 -1.2,0.359 -0.599,0.36 -0.479,-0.478 -0.599,-1.198 -0.12,-0.719 0,-0.6 0,-0.6 0,0 -2.278,-2.397 -2.637,-2.757 -0.359,-0.36 -1.199,0.24 -1.799,0.719 -0.599,0.48 0.959,10e-4 1.559,0.24 0.599,0.239 1.798,1.677 2.038,2.157 0.239,0.48 -0.6,0.72 -0.6,0.72 0,0 -0.839,0.839 -0.959,1.199 -0.12,0.359 -1.078,0.839 -2.038,1.678 -0.959,0.839 -1.438,0.6 -1.918,0.839 -0.479,0.24 -1.079,0.599 -1.799,0.959 -0.719,0.359 -1.198,1.918 -1.558,2.278 -0.36,0.359 -0.838,0.12 -0.838,0.12 0,0 -0.96,-0.24 -1.319,0.359 -0.36,0.6 -0.838,0.12 -0.599,-1.439 0.238,-1.558 -3.118,-0.359 -3.717,-0.239 -0.6,0.121 -1.798,-1.199 -1.798,-1.199 l -1.438,-2.157 c 0,0 -1.32,-0.36 -1.918,-0.72 -0.6,-0.359 -1.679,-2.157 -1.32,-2.877 0.36,-0.719 -0.118,-0.959 -0.838,-1.678 -0.72,-0.719 -3.118,-1.558 -3.717,-2.278 -0.599,-0.719 -1.559,-0.479 -2.518,0.121 -0.959,0.599 -1.678,0.239 -2.037,0.359 -0.36,0.12 -2.038,0.359 -2.038,0.359 0,0 -0.72,0.481 -0.96,1.559 -0.239,1.08 -0.239,1.798 0.12,2.518 0.361,0.72 0.24,2.158 0.121,3.237 -0.121,1.078 0.119,2.037 1.199,2.877 1.078,0.839 0,0.599 1.558,0.479 1.559,-0.119 2.516,-0.479 3.835,-1.199 1.319,-0.719 2.039,0.121 2.519,0.36 0.479,0.24 0.478,-0.48 1.078,0.599 0.599,1.08 -0.24,1.319 0.36,2.159 0.599,0.839 -0.36,0.718 -0.36,0.718 0,0 -0.599,1.439 -0.958,1.559 -0.361,0.121 -0.72,0.6 -1.439,1.08 -0.719,0.478 -1.799,1.078 1.558,0.958 3.356,-0.12 -1.079,1.199 -1.318,1.678 -0.24,0.48 0.719,0.96 2.038,0.72 1.318,-0.24 0.598,0 1.198,0.12 0.6,0.12 0.48,0.239 1.559,0.359 1.079,0.12 0.958,0.359 1.439,0.479 0.478,0.12 0.719,1.079 2.037,2.159 1.319,1.078 0.359,0 1.679,0.479 1.318,0.479 0.359,1.918 1.079,2.157 0.72,0.24 1.318,0.6 2.757,0.72 1.438,0.119 0,0 0.359,0.119 0.359,0.121 1.078,1.438 2.038,1.919 0.96,0.48 0.239,-0.36 0.72,-0.719 0.479,-0.36 1.558,-0.12 2.277,0.359 0.72,0.479 1.439,0.24 2.637,0 1.199,-0.239 0.6,-0.959 1.199,-0.959 0.6,0 1.079,-0.359 1.439,0.12 0.359,0.48 1.558,1.08 2.158,1.08 0.598,0 1.679,-0.121 1.679,-0.121 0,0 0.717,-0.12 1.078,-0.12 0.36,0 2.157,1.198 1.918,2.996 -0.24,1.799 1.319,0.6 2.038,0.481 0.718,-0.12 1.678,0.479 0.839,2.877 -0.839,2.397 0.6,0.718 1.558,0.479 0.959,-0.239 2.277,0.48 2.877,1.079 0.6,0.6 -0.239,1.319 -0.6,1.559 -0.359,0.239 -1.557,-0.24 -2.277,-0.12 -0.719,0.12 -1.918,-0.36 -2.517,-0.36 -0.599,0 -1.918,1.919 -1.678,2.158 0.239,0.239 1.318,2.158 1.918,2.877 0.598,0.719 0.12,1.199 0.12,1.199 0,0 -0.239,1.559 -3.836,-0.719 -3.597,-2.279 -2.038,-1.079 -2.277,-2.277 -0.24,-1.2 -0.6,-1.56 -0.6,-2.758 0,-1.2 1.199,-1.799 1.199,-1.799 0,0 -1.678,-1.918 -1.678,-2.757 0,-0.839 -2.637,-2.517 -2.637,-2.517 0,0 -1.199,-0.839 -1.44,-0.48 -0.239,0.36 -2.157,0.24 -2.037,1.918 0.12,1.679 -1.558,1.438 -4.196,3.237 -2.637,1.798 -2.277,-0.119 -2.877,-0.719 -0.599,-0.6 -0.839,3.716 -0.12,4.915 0.72,1.199 0,0 0.72,0.12 0.719,0.12 1.678,0.12 2.637,0.599 0.959,0.479 0.48,1.078 0.72,1.798 0.239,0.72 2.757,2.637 3.477,3.237 0.719,0.599 3.236,2.278 4.195,3.117 0.959,0.839 2.038,1.318 3.476,2.397 1.44,1.079 2.039,0.839 3.118,0.959 1.079,0.12 1.919,-0.12 3.117,-0.239 1.198,-0.12 2.397,0.119 3.236,-0.12 0.839,-0.24 2.157,-0.479 5.275,-0.959 3.117,-0.48 0.839,-0.24 3.117,-1.079 2.277,-0.839 2.396,-0.36 3.836,-1.079 1.439,-0.719 0.358,-1.318 0.12,-1.918 -0.238,-0.6 -1.798,-0.838 -2.757,0 -0.959,0.839 -1.798,0.121 -3.597,-0.239 -1.799,-0.361 2.757,-2.638 3.597,-3.956 0.838,-1.319 2.278,0.359 4.795,2.397 2.517,2.038 1.918,1.198 3.956,2.157 2.038,0.959 3.478,0.839 3.956,1.558 0.48,0.72 2.877,0.719 3.477,0 0.599,-0.718 2.277,0.72 2.997,0.121 0.719,-0.6 1.319,0.958 3.117,1.798 1.798,0.839 1.316,0 2.876,-1.079 1.559,-1.079 1.319,-0.241 2.158,-0.84 0.652,-0.464 2.891,-0.853 4.478,-0.332 -21.724,32.834 -58.976,54.496 -101.294,54.496 -38.458,0 -72.733,-17.89 -94.971,-45.797 0.862,0.093 1.811,0.355 2.614,-0.333 1.259,-1.079 2.697,-2.337 3.776,-2.697 1.079,-0.36 2.337,0.899 3.417,0.36 1.078,-0.54 4.855,2.697 4.135,0.179 -0.719,-2.518 0.899,-3.236 -1.079,-3.416 -1.978,-0.18 -4.136,-1.619 -5.035,-1.08 -0.899,0.54 -1.619,1.08 -3.057,0.36 -1.439,-0.72 -0.719,-0.719 -2.337,-0.36 -1.619,0.36 -1.978,-0.359 -2.338,0.18 -0.36,0.539 -1.438,0.36 -1.259,1.978 0.18,1.619 0.719,1.439 -0.36,1.439 -0.392,0 -0.76,-0.023 -1.105,-0.027 -0.878,-1.187 -1.735,-2.392 -2.571,-3.61 1.16,-0.052 2.062,-0.104 2.178,-0.142 0.359,-0.12 -0.359,-1.079 0,-1.079 0.359,0 1.079,-0.6 2.158,-0.6 1.078,0 2.037,-0.6 2.397,-0.479 0.359,0.12 1.439,-1.559 1.439,-1.199 0,0.36 1.077,1.319 1.797,2.038 0.72,0.72 1.679,0.12 2.518,0.24 0.838,0.12 4.076,0.12 5.154,0 1.079,-0.12 1.918,-0.839 2.518,-0.839 0.6,0 0.719,-0.119 1.439,-0.719 0.719,-0.6 3.597,1.918 4.436,4.315 0.839,2.398 1.918,1.559 3.117,2.039 1.198,0.479 0.479,-1.08 0.599,-2.159 0.119,-1.079 0.119,-0.72 0.959,-0.959 0.839,-0.239 0.719,-0.359 0.719,-0.359 0,0 -0.36,-0.959 -0.24,-1.558 0.119,-0.6 0.24,-0.479 1.678,0.24 1.439,0.719 0.84,0 2.877,0.959 2.038,0.958 1.2,1.198 1.799,1.079 0.599,-0.121 1.079,0.239 0.959,-0.96 -0.12,-1.199 -1.557,-1.679 -2.397,-2.158 -0.84,-0.479 -2.279,-0.36 -3.238,-0.838 -0.958,-0.48 -2.038,-0.838 -2.877,-1.798 -0.838,-0.96 -0.839,-0.12 -0.959,0.239 -0.12,0.359 -0.959,0.72 -1.438,0.959 -0.48,0.24 -0.24,-1.439 -0.24,-1.439 0,0 -0.119,-1.079 -0.599,-1.678 -0.48,-0.599 -1.918,-0.479 -2.758,-0.719 -0.839,-0.24 -3.716,-1.559 -5.394,-2.158 -1.678,-0.599 -4.915,-3.476 -5.155,-4.076 -0.24,-0.599 -0.12,-2.157 0.12,-2.877 0.24,-0.72 2.637,-1.558 2.517,-2.037 -0.119,-0.48 7.553,-1.679 7.553,-1.679 l -1.079,-1.079 c 0,0 -0.719,-2.636 -0.12,-3.356 0.599,-0.72 2.397,-1.079 3.117,-0.839 0.72,0.24 1.319,2.518 1.319,3.476 0,0.959 1.558,1.079 1.558,1.079 0,0 1.679,1.079 3.597,1.318 1.918,0.24 0.239,1.319 0.599,5.036 0.359,3.716 1.077,1.437 1.558,1.678 0.48,0.24 2.996,2.517 3.476,3.237 0.48,0.719 2.158,-0.36 2.877,-0.36 0.72,0 2.638,-0.241 3.117,-1.439 0.479,-1.198 0.72,-0.718 0.36,-1.558 -0.36,-0.839 0.599,-2.637 1.319,-2.278 0.719,0.36 4.075,2.038 4.675,2.398 0.599,0.359 0.838,0 1.199,-0.12 0.359,-0.121 0,-1.558 0,-1.558 0,0 0.12,-0.721 -0.24,-2.398 -0.36,-1.678 0.12,-1.439 0.599,-1.798 0.48,-0.359 0.359,-0.6 1.319,-2.158 0.959,-1.559 0.599,-0.119 1.078,0.12 0.48,0.24 1.079,-0.839 1.678,-1.319 0.599,-0.479 -0.479,-1.558 -0.479,-1.558 0,0 -0.959,-0.718 -1.199,-1.198 -0.24,-0.481 -1.917,-1.439 -2.757,-2.039 -0.84,-0.599 -2.278,-0.359 -3.356,-0.359 -1.079,0 -5.755,-0.12 -7.673,-0.6 -1.918,-0.479 -3.476,-1.198 -3.956,-1.438 -0.479,-0.241 -0.719,-1.318 0,-1.199 0.72,0.12 1.558,-0.119 1.919,0 0.359,0.119 3.117,0.719 4.195,0.24 1.079,-0.48 -0.599,-0.839 -1.918,-2.037 -1.319,-1.2 0.48,-1.08 1.678,-1.44 1.199,-0.36 1.079,-0.239 2.877,0.479 1.799,0.72 0.84,0.24 1.319,-0.12 0.48,-0.359 -0.359,-1.078 -0.359,-1.078 0,0 -0.121,-0.239 -1.919,-0.839 -1.798,-0.6 -1.198,-0.121 -2.038,-0.24 -0.839,-0.119 -0.718,-0.479 -2.996,-2.278 -2.279,-1.798 -1.918,-0.24 -1.439,0.959 0.479,1.198 -1.079,0.359 1.319,1.798 2.398,1.439 -0.241,0.24 -1.08,0 -0.838,-0.24 -2.876,-1.318 -3.476,-1.318 -0.599,0 -2.157,-1.439 -3.356,-2.398 -1.199,-0.959 -1.199,-1.199 -1.199,-2.277 0,-1.08 -1.918,-0.481 -2.278,-0.481 -0.359,0 -2.637,-1.078 -2.518,-1.678 0.12,-0.598 -1.557,-1.558 -1.557,-1.558 0,0 -1.559,-1.198 -1.679,-1.678 -0.121,-0.479 -2.397,-2.157 -2.518,-3.116 -0.12,-0.96 -0.839,-1.319 -0.839,-1.319 0,0 -1.917,-1.319 -2.757,-1.798 -0.839,-0.48 -4.315,-2.877 -5.754,-3.956 -1.439,-1.078 -1.438,-1.558 -1.198,-2.398 0.239,-0.839 -0.36,-1.559 0.479,-4.076 0.839,-2.517 -0.36,-3.237 -0.36,-3.237 0,0 -0.719,-0.958 -1.078,-1.318 -0.36,-0.36 -1.199,1.439 -1.199,1.439 0,0 -0.599,1.319 -0.599,3.477 0,2.157 -0.48,0.958 -0.48,1.318 0,0.36 -0.599,0.36 -0.479,0.719 0.119,0.359 -1.079,0.479 -1.918,1.198 -0.839,0.72 -1.319,0.121 -1.558,0.48 -0.24,0.359 -1.799,-0.12 -1.799,0.24 0,0.36 -0.959,-0.12 -1.918,-1.678 -0.958,-1.559 -1.079,-0.959 -1.678,-0.839 -0.599,0.119 -1.679,-0.361 -1.918,0.958 -0.24,1.319 -1.798,0 -2.397,0 -0.599,0 -1.32,-0.239 -2.158,-0.479 -0.839,-0.24 -1.679,-0.84 -2.158,-1.319 -0.479,-0.479 -2.278,-1.079 -2.637,-1.558 -0.36,-0.48 -0.72,-1.678 -0.6,-2.038 0.121,-0.36 -1.318,-2.757 -1.198,-3.357 0.119,-0.599 -1.199,-3.117 -1.199,-3.956 0,-0.838 0.24,-2.637 0.719,-3.476 0.48,-0.839 2.997,-2.158 3.596,-2.278 0.6,-0.119 2.398,-0.24 2.398,-0.24 0,0 1.438,0.72 2.158,0.96 0.719,0.24 1.319,1.799 1.918,3.237 0.599,1.438 0.48,0.598 1.198,0.959 0.72,0.359 1.919,0.118 2.638,-0.361 0.719,-0.478 0.359,-0.598 0.359,-0.958 0,-0.359 -1.079,-2.997 -1.318,-3.596 -0.24,-0.599 -1.798,-4.315 -1.559,-4.196 0.24,0.12 1.559,0.48 2.638,0.48 1.079,0 2.757,-0.119 3.596,-0.599 0.839,-0.48 0.119,-0.6 0.24,-1.079 0.12,-0.48 0,-2.278 -0.36,-3.717 -0.36,-1.438 0.12,-2.757 0.12,-3.596 0,-0.839 0.599,-1.318 0.599,-1.318 0,0 1.319,-1.559 1.919,-1.678 0.6,-0.12 0.959,-0.84 0.959,-0.84 l 0.839,-1.198 -1.56,0.478 -1.439,1.079 -1.798,0.36 c 0,0 -1.318,1.198 -1.677,1.437 -0.36,0.241 -0.84,0.6 -0.84,1.439 0,0.839 -0.239,0.719 -0.359,1.679 -0.12,0.959 -0.96,0.959 -1.319,1.558 -0.359,0.599 -0.719,0.958 -1.198,1.558 -0.48,0.6 -0.719,0.119 -1.198,0.24 -0.48,0.12 -0.48,0.12 -1.2,0.12 -0.719,0 -1.198,0 -1.797,0.48 -0.6,0.479 -1.199,0.359 -1.799,0.958 -0.599,0.599 -0.959,0.599 -1.318,1.079 -0.36,0.48 -1.079,0.48 -1.439,1.079 -0.36,0.6 -1.199,-0.12 -1.558,0.12 -0.36,0.239 -1.319,-0.479 -1.319,-0.479 0,0 -1.079,0 -1.439,0.119 -0.359,0.12 -1.317,0.36 -1.317,0.36 0,0 -0.088,0.014 -0.222,0.039 3.814,-32.024 20.094,-60.219 43.853,-79.597 -0.091,1.318 -0.224,2.908 -0.356,3.438 -0.239,0.96 0.36,2.996 -0.24,4.795 -0.6,1.799 0.12,3.955 -0.24,4.675 -0.36,0.719 0.24,2.756 -0.12,4.674 -0.359,1.918 1.439,4.316 0,5.035 -1.438,0.719 -0.359,1.798 -1.558,1.798 -1.199,0 -2.038,0.6 -3.117,1.439 -1.079,0.839 -3.117,2.398 -3.716,2.998 -0.599,0.599 -2.518,2.157 -3.117,2.637 -0.599,0.479 -1.199,2.517 -1.678,3.117 -0.48,0.599 -0.719,2.396 -1.439,3.475 -0.719,1.08 -1.678,2.877 -1.918,3.237 -0.24,0.36 -2.877,3.476 -2.877,3.476 l 0.239,1.918 c 0,0 1.799,1.079 1.559,1.439 -0.24,0.359 0.12,0.72 -0.72,1.438 -0.84,0.719 -0.719,2.039 0,2.638 0.72,0.6 1.798,2.518 1.798,2.518 l 1.798,2.997 c 0,0 1.439,1.559 1.439,2.637 0,1.079 2.038,1.798 0.839,2.757 -1.199,0.959 -0.599,1.799 -0.959,2.518 -0.36,0.72 -0.12,1.198 0.959,1.918 1.079,0.72 2.997,3.357 2.997,3.357 0,0 1.439,0.359 1.798,0.359 0.36,0 0.959,3.837 2.039,1.32 1.079,-2.518 1.438,-1.199 1.079,-2.997 -0.36,-1.798 0.479,-1.439 0.958,-0.96 0.48,0.479 -0.24,-0.359 0.719,1.799 0.959,2.159 0.6,2.877 1.199,2.277 0.599,-0.6 0.839,-0.719 1.918,-1.079 1.079,-0.36 1.439,-0.239 1.797,-0.959 0.36,-0.719 0.241,0.24 2.278,-0.12 2.038,-0.36 4.915,0.719 4.556,-0.479 -0.138,-0.458 -0.327,-0.548 -0.416,-0.558 0.106,-0.028 0.397,-0.156 1.015,-0.64 1.678,-1.319 1.919,-1.559 2.877,-1.799 0.959,-0.241 1.798,-0.12 3.237,-1.558 1.439,-1.439 1.798,-1.559 2.158,-2.277 0.359,-0.719 0.959,-0.241 1.558,-0.96 0.6,-0.718 1.439,-0.719 2.278,-0.719 0.838,0 0,0.719 1.318,-0.24 1.319,-0.96 2.278,-1.078 2.877,-2.997 0.599,-1.918 1.798,-1.798 0.839,-3.717 -0.959,-1.918 -2.876,-2.757 -2.037,-2.637 0.838,0.12 2.397,0.84 2.877,0.719 0.479,-0.119 0.718,0.36 1.438,0 0.72,-0.359 0.839,0.479 0.72,-0.359 -0.12,-0.839 -0.121,0 -0.121,-0.84 0,-0.059 -0.001,-0.103 -0.003,-0.139 0.048,0.244 0.279,0.85 1.202,0.619 1.439,-0.36 0.599,0.72 2.278,-0.839 1.678,-1.559 1.678,-1.08 2.277,-1.919 0.6,-0.838 1.199,0.479 1.559,0.121 0.36,-0.359 1.439,-0.12 2.518,-0.36 1.078,-0.241 0.359,0.719 2.038,-0.36 1.678,-1.078 3.356,-0.718 3.716,-1.677 0.359,-0.96 1.319,-0.6 1.797,-1.2 0.479,-0.599 0.72,0.241 1.2,-0.599 0.479,-0.839 1.918,-0.599 1.678,-1.438 -0.24,-0.84 0.359,-0.36 0.119,-1.558 -0.24,-1.199 -1.079,-3.119 -1.797,-3.597 -0.719,-0.479 -0.72,-1.079 -1.2,-1.678 -0.479,-0.599 -0.359,0.599 -0.959,-1.079 -0.599,-1.679 -0.479,-1.919 -0.958,-3.476 -0.48,-1.558 -0.12,0 -0.48,-1.559 -0.359,-1.559 -0.119,-2.518 -0.479,-4.316 -0.359,-1.798 -0.239,-1.798 -0.479,-3.117 -0.24,-1.319 0.599,0.599 -0.48,-2.158 -1.079,-2.758 -1.198,-2.637 -1.558,-3.836 -0.36,-1.199 0.12,-0.239 -1.199,-0.959 -1.319,-0.72 -0.599,-0.479 -2.158,-0.959 -1.558,-0.479 -3.476,-0.96 -4.075,-1.079 -0.599,-0.119 -2.997,-0.839 -2.278,-2.277 0.72,-1.438 0.72,-1.679 0,-3.478 -0.719,-1.798 -1.798,-2.397 -1.798,-3.235 0,-0.839 -0.479,-1.678 -0.599,-2.277 -0.12,-0.6 1.079,0.599 -0.359,-1.2 -1.438,-1.799 -1.559,-1.318 -2.038,-2.397 -0.48,-1.079 0,-0.239 -0.48,-1.079 -0.479,-0.839 -1.678,-1.198 -1.678,-1.198 0,0 0.119,-0.6 -0.36,-0.36 -0.48,0.239 -0.36,-0.12 -2.158,0.36 -1.799,0.48 -2.038,1.677 -2.278,0.838 -0.239,-0.838 0.12,-1.319 1.199,-2.158 1.079,-0.839 2.877,-1.078 2.397,-1.918 -0.479,-0.84 -0.479,-0.84 -0.838,-1.319 -0.361,-0.48 0.479,-0.119 -0.361,-0.48 -0.839,-0.36 -1.318,-1.918 -1.678,-1.918 -0.359,0 -0.599,-0.599 -1.079,-0.36 -0.479,0.24 -1.678,1.079 -1.918,0.601 -0.24,-0.48 -0.719,0.599 -0.6,-1.079 0.016,-0.211 0.033,-0.412 0.05,-0.6 17.792,-10.232 38.424,-16.085 60.422,-16.085 35.471,0 67.385,15.219 89.578,39.479 l -1.157,1.781 c 0,0 -10e-4,2.517 -0.121,3.356 -0.12,0.84 0.479,1.08 1.079,1.32 0.6,0.239 0.959,1.437 0.959,2.396 0,0.959 0,1.679 0.12,2.039 0.12,0.359 0,1.678 -0.36,2.757 -0.359,1.079 0.72,0.839 0.72,0.839 0,0 1.198,0.599 1.678,0.719 0.48,0.12 1.318,0.839 1.318,0.839 l 2.399,1.2 c 0,0 1.318,1.917 1.677,3.236 v 0 0 0 l 0.84,-2.639 c 0,0 0,-0.96 0,-1.438 0,-0.48 -0.12,-0.96 -0.359,-1.439 -0.241,-0.479 -0.361,-2.159 -0.48,-2.878 -0.12,-0.717 -0.959,-1.675 -0.959,-2.276 0,-0.536 -0.95,-1.925 -1.154,-2.474 16.039,20.576 25.598,46.45 25.598,74.559 0,0.062 -0.002,0.124 -0.002,0.187 -0.397,0.206 -0.704,0.378 -0.704,0.378"
       style="fill:#274596;fill-opacity:1;fill-rule:nonzero;stroke:none;stroke-width:0.1"
       id="path48" /><path
       d="m 223.339,552.589 c -2.518,-0.539 -4.316,-1.079 -5.394,-1.079 -1.079,0 -3.417,-0.899 -4.136,-1.258 -0.72,-0.359 1.259,-0.899 -2.518,-1.978 -3.777,-1.079 -4.676,-0.899 -5.754,-2.338 -1.078,-1.438 -0.72,-1.619 -1.439,-2.518 -0.719,-0.899 -2.877,-4.496 -3.956,-3.597 -1.078,0.9 -1.619,0.72 -2.517,1.619 -0.899,0.899 -1.439,2.158 -1.978,2.877 -0.54,0.72 -0.72,2.518 -0.899,3.597 -0.18,1.079 -1.799,3.596 0,3.236 1.797,-0.359 2.877,-0.18 3.416,0.18 0.54,0.359 1.079,1.619 1.079,1.619 0,0 -0.179,1.978 -0.72,3.057 -0.54,1.078 -0.179,1.978 -1.078,3.056 -0.899,1.079 -0.899,0.899 -2.158,1.978 -1.259,1.079 -0.899,1.619 -2.877,1.798 -1.978,0.18 -2.518,0.72 -3.237,0.54 -0.72,-0.18 -3.057,1.259 -0.54,1.438 2.517,0.18 4.855,-0.179 4.855,-0.179 0,0 3.237,1.439 2.159,1.618 -1.079,0.18 1.618,1.799 -0.899,1.259 -2.517,-0.539 -5.395,-1.259 -6.114,-1.438 -0.72,-0.18 -2.518,-0.36 -4.316,-0.9 -1.798,-0.539 -3.956,-0.36 -5.034,-1.618 -1.079,-1.259 0,-1.439 -1.079,-1.259 -1.079,0.18 0.899,1.259 -1.619,0 -2.517,-1.258 -1.798,-1.079 -3.056,-0.719 -1.259,0.359 -2.158,0.899 -2.158,0.899 0,0 1.619,0.18 -0.719,0.359 -2.339,0.18 -2.338,0.18 -3.237,1.259 -0.899,1.08 -0.359,1.079 0.18,1.439 0.539,0.359 0.899,1.08 0.899,1.08 v 0 l 7.193,0.898 c 0,0 2.517,0 3.776,0.9 1.259,0.899 0,0.899 3.776,1.618 3.776,0.718 2.698,1.079 4.676,0.719 1.977,-0.36 2.517,-0.36 4.675,-0.719 2.158,-0.36 2.697,0.179 4.675,-0.36 1.977,-0.539 2.877,-0.359 4.495,-0.359 h 5.035 c 2.518,0 4.855,1.438 5.754,0.539 0.899,-0.899 1.439,-0.539 4.496,-0.899 3.057,-0.359 4.315,0.36 5.574,0 1.258,-0.36 3.417,0.18 5.934,0 2.517,-0.18 3.777,0.18 4.675,0.18 0.899,0 1.798,1.258 3.057,0.18 1.259,-1.08 2.877,0.359 3.056,-1.08 0.18,-1.438 2.518,-0.359 0.181,-1.438 -2.338,-1.079 -1.979,-0.899 -3.597,-2.338 -1.619,-1.438 1.078,-2.697 -2.338,-3.955 -3.417,-1.26 -3.956,0.719 -4.855,-1.439 -0.899,-2.158 0,-2.697 -0.179,-3.776 -0.18,-1.079 -0.54,-1.259 -1.619,-2.158 -1.079,-0.899 -1.079,0 -3.596,-0.54 z m -42.617,-4.675 c 0,0 -1.438,0.899 -2.158,0.899 -0.719,0 0.001,0 1.08,-2.698 1.078,-2.697 -1.979,-0.359 -1.979,-0.359 0,0 -1.978,-0.54 -0.36,-2.338 1.619,-1.798 -1.618,-1.619 -2.697,-1.079 -1.078,0.54 -3.416,1.44 -4.675,2.338 -1.259,0.899 -0.54,1.618 1.258,2.158 1.799,0.54 1.979,1.079 2.518,1.618 0.54,0.54 -0.179,2.158 -1.078,4.316 -0.9,2.158 -0.539,0.54 -4.675,1.978 -4.136,1.439 -2.877,-0.359 -3.956,-0.899 -1.079,-0.539 -1.438,1.439 -1.978,1.978 -0.54,0.54 1.618,1.799 2.517,2.698 l 1.258,-1.26 c 0,0 0.898,0.359 3.596,0.899 2.698,0.539 2.877,0.18 4.316,-0.719 1.439,-0.9 1.259,-0.9 3.956,-1.26 2.697,-0.359 0.719,-2.157 0.719,-2.157 l 2.338,-2.338 0.719,-2.337 z m 165.736,-63.892 -2.637,0.239 -2.278,-0.12 c 0,0 -2.158,10e-4 -3.716,0.24 -1.559,0.239 -1.56,0 -2.159,0.599 -0.599,0.599 -1.917,0.72 -2.158,1.678 -0.24,0.958 -0.478,0.36 -1.078,0.599 -0.599,0.239 -0.84,-0.119 -1.079,0.12 -0.24,0.239 -1.438,0.12 -2.877,0.239 -1.438,0.12 -2.158,0.96 -3.717,2.039 -1.558,1.078 -2.517,1.318 -3.117,2.877 -0.599,1.558 -1.318,-1.199 -0.359,-2.997 0.959,-1.799 0.84,-1.8 0.959,-2.518 0.12,-0.719 0.478,-0.839 0.959,-2.637 0.48,-1.799 1.319,-1.079 2.158,-2.279 0.839,-1.198 1.559,0 3.356,0.36 1.799,0.36 1.078,0.839 2.877,2.638 1.799,1.798 0.84,0 1.679,-1.558 0.84,-1.559 0.72,-1.319 1.919,-2.518 1.198,-1.199 1.679,-0.959 2.518,-1.678 0.838,-0.72 -0.481,-1.798 -1.44,-2.877 -0.959,-1.08 -1.437,-1.199 -1.678,-1.919 -0.24,-0.719 -1.439,-2.278 -2.518,-3.117 -1.078,-0.839 -2.636,-2.277 -2.636,-2.277 0,0 -3.837,-1.798 -4.316,-1.798 -0.48,0 -4.795,-2.757 -4.795,-2.757 l -2.878,-0.72 c 0,0 -2.156,0.6 -2.278,1.079 -0.12,0.48 -1.198,2.517 -1.198,4.076 0,1.558 -2.278,3.956 -2.517,4.675 -0.241,0.72 -1.798,2.158 -2.278,2.877 -0.479,0.72 -1.679,2.638 -1.799,3.118 -0.118,0.479 -0.838,1.678 -1.438,3.356 -0.599,1.678 -3.117,3.957 -3.117,4.436 0,0.479 -1.438,1.798 -1.798,1.798 -0.36,0 -1.318,-0.36 -1.318,-0.36 0,0 -1.679,1.199 -1.799,1.558 -0.12,0.36 0.479,-1.559 0.839,-1.917 0.36,-0.361 3.117,-5.874 3.356,-6.954 0.24,-1.078 0.72,-1.439 1.079,-2.637 0.36,-1.198 0.839,-1.439 1.559,-3.597 0.72,-2.158 1.199,-1.558 1.798,-3.117 0.599,-1.557 0.838,-1.199 1.797,-2.397 0.96,-1.198 0.841,-0.48 1.919,-2.038 1.079,-1.558 1.56,-2.038 2.279,-3.236 0.718,-1.2 0.958,-2.158 1.317,-3.836 0.36,-1.679 1.199,-0.48 2.278,-0.72 0,0 1.797,0.598 5.275,0.36 3.477,-0.24 2.278,0.239 2.757,0.36 0.48,0.119 1.918,0.359 2.158,0.599 0.239,0.239 -0.959,-4.436 -1.198,-5.275 -0.241,-0.839 -1.559,-2.398 -1.559,-2.398 0,0 -0.959,-1.199 -1.078,-1.558 -0.12,-0.36 -1.799,-2.637 -2.638,-3.836 -0.839,-1.198 -2.278,-2.279 -2.878,-2.758 -0.598,-0.479 -1.437,-1.678 -2.277,-2.997 -0.839,-1.318 -3.236,-4.075 -3.236,-4.075 0,0 -1.559,-1.918 -1.918,-2.398 -0.36,-0.479 -1.2,-1.678 -1.2,-2.158 0,-0.478 -0.238,-2.038 0.241,-2.637 0.478,-0.599 0.599,-2.997 1.318,-4.915 0.72,-1.918 0.241,-1.438 0.481,-3.476 0.239,-2.038 0.239,-2.398 0.239,-2.757 0,-0.36 -0.72,-1.919 -0.72,-2.519 0,-0.599 -1.799,-1.798 -2.637,-2.277 -0.84,-0.479 -0.96,-0.839 -1.559,-1.198 -0.6,-0.361 -2.398,-2.638 -2.398,-2.638 0,0 -1.318,-1.797 -1.438,-3.596 -0.12,-1.798 0.24,-0.6 0.479,-0.96 0.24,-0.36 0,-1.918 0.24,-2.997 0.24,-1.079 -0.361,-0.598 -0.72,-0.719 -0.36,-0.12 -0.719,-0.839 -1.319,-1.199 -0.598,-0.36 -1.318,-0.958 -1.918,-2.517 -0.6,-1.56 -0.36,-0.958 -0.719,-1.439 -0.361,-0.479 -0.481,-0.839 -0.72,-1.438 -0.24,-0.6 -0.479,-1.439 -1.318,-1.678 -0.839,-0.24 -1.559,-1.559 -2.279,-2.158 -0.718,-0.6 -0.599,-0.6 -1.677,-1.56 -1.078,-0.959 -1.439,-1.438 -2.038,-2.037 -0.6,-0.598 -1.198,-1.08 -1.678,-0.84 -0.481,0.241 -1.319,-0.718 -1.918,-0.718 -0.6,0 -1.199,-0.72 -1.799,-0.72 -0.599,0 -1.198,-0.359 -1.918,0 -0.72,0.359 -1.679,-0.719 -2.158,-0.839 -0.48,-0.119 -1.798,0.719 -1.798,0.719 0,0 -0.479,0.84 -0.839,1.679 -0.36,0.839 -0.479,2.638 -0.599,3.357 -0.121,0.718 -0.6,1.198 -0.959,2.037 -0.361,0.84 -0.241,0.6 -0.72,1.199 -0.48,0.6 -0.959,1.078 -1.679,1.918 -0.719,0.839 -0.239,0.959 -0.359,1.439 -0.119,0.479 -0.239,1.559 -0.479,1.919 -0.241,0.359 -0.121,1.918 -0.121,2.517 0,0.6 -0.119,1.079 -0.359,2.037 -0.24,0.959 -0.719,1.2 -0.839,1.919 -0.12,0.719 -0.48,1.798 -1.079,2.877 -0.6,1.078 -1.079,2.399 -2.037,3.597 -0.959,1.198 -0.241,1.198 -0.361,2.396 -0.119,1.2 0.361,2.038 0.6,2.877 l 0.72,1.078 1.078,2.04 0.24,0.719 c 0,0 0.24,1.559 0.359,1.918 0.12,0.36 -0.359,1.439 -0.718,2.038 -0.361,0.599 0,0.719 0.119,1.559 0.12,0.838 -0.119,0.838 -0.239,2.037 -0.121,1.199 -0.719,1.319 -1.199,2.398 -0.48,1.08 -0.719,1.558 -0.84,2.397 -0.119,0.839 -1.078,2.158 -1.438,2.639 -0.359,0.478 -1.079,1.317 -2.158,2.276 -1.079,0.959 -0.599,1.438 -0.599,1.438 0,0 0.239,1.559 0.599,1.919 0.359,0.36 0.359,1.918 0.479,2.637 0.12,0.719 -0.598,2.637 -0.598,2.637 l -0.361,0.48 -1.079,1.198 c 0,0 -1.079,-0.12 -1.318,0.36 -0.239,0.48 -1.199,-0.239 -1.199,-0.239 l -0.719,0.119 c 0,0 -0.72,0.48 -0.839,0.96 -0.12,0.48 -0.72,0.84 -1.079,1.318 -0.36,0.48 -0.839,0.121 -1.199,0.481 -0.36,0.358 -0.719,0 -1.798,0.358 -1.079,0.359 -0.84,-0.358 -1.439,-0.119 -0.599,0.239 -1.198,-0.239 -1.677,-0.239 -0.481,0 -1.68,-0.721 -2.039,-0.721 -0.36,0 -1.559,-0.479 -2.039,-0.479 -0.478,0 -1.197,-0.599 -1.677,-0.479 -0.48,0.12 -0.839,-0.239 -1.439,0.12 -0.599,0.359 -1.438,-0.48 -1.798,-0.72 -0.359,-0.239 -1.677,-0.719 -2.158,-0.479 -0.479,0.24 -1.438,-0.361 -1.918,0 -0.479,0.361 -1.318,0.24 -1.678,0.599 -0.359,0.36 -1.438,0.599 -1.797,1.079 -0.361,0.48 -1.919,1.678 -1.919,1.678 0,0 -1.199,1.319 -1.439,1.678 -0.239,0.36 -1.198,1.679 -1.318,2.038 -0.12,0.36 -1.079,2.039 -1.199,2.398 -0.12,0.359 -0.959,1.079 -1.439,1.558 -0.48,0.48 -1.918,1.319 -1.918,1.319 0,0 -0.36,0.719 -0.12,1.079 0.24,0.359 -0.12,1.919 -0.12,1.919 0,0 -0.718,1.077 -0.479,1.677 0.239,0.6 0.958,1.918 1.198,2.637 0.24,0.72 0.24,1.32 0.48,2.878 0.24,1.558 0,1.318 -0.24,2.037 -0.24,0.72 -0.24,1.08 -0.36,3.118 l 0.24,0.599 c 0,0 0.959,1.558 1.319,2.877 0.359,1.319 1.079,2.158 1.319,2.518 0.239,0.359 0.718,0.838 1.199,1.557 0.479,0.72 1.079,1.439 1.438,1.679 0.36,0.239 0.958,0.959 0.958,0.959 0,0 0.96,1.079 1.679,1.558 0.72,0.48 2.398,2.038 2.398,2.038 0,0 0,1.078 -0.121,1.678 -0.12,0.6 0.839,1.559 0.839,1.559 l 0.36,1.079 2.398,1.319 1.198,1.198 1.799,2.397 v 0.001 c 0,0 0.6,-0.959 0.96,-1.202 0.36,-0.24 1.318,0 2.158,0.599 0.84,0.599 1.319,-0.121 2.038,0 0.719,0.12 1.199,0.24 2.037,-0.12 0.839,-0.36 1.678,0.36 2.278,0.839 0.599,0.479 0.96,0.24 0.96,0.24 0,0 1.318,0.479 5.994,0.839 4.675,0.36 1.558,0 2.517,0.36 0.959,0.359 2.159,0.478 2.997,0.838 0.839,0.361 0.36,-0.239 0.959,-0.599 0.599,-0.359 -0.719,-1.198 -0.839,-2.157 -0.12,-0.959 -0.24,-0.838 -0.12,-2.397 0.12,-1.559 1.439,-10e-4 2.398,-1.919 0.959,-1.917 1.918,-0.239 2.877,-0.839 0.959,-0.599 1.918,-0.6 3.836,-2.038 1.918,-1.438 2.277,-0.718 3.596,-0.839 1.319,-0.119 0.72,-0.599 0.959,0.36 0.241,0.959 1.32,1.079 1.32,2.997 0,1.918 0.238,0.599 0.719,0.12 0.479,-0.479 1.676,-0.36 2.397,-1.199 0.72,-0.839 2.398,-0.239 3.597,-0.958 1.198,-0.72 4.076,-10e-4 5.634,-0.361 1.558,-0.359 2.877,-0.239 3.957,-0.359 1.078,-0.12 1.438,0.24 2.037,0.359 0.599,0.12 1.079,0.72 2.397,3.238 0,0 0.481,1.318 0.84,3.236 0.359,1.918 -0.121,0.959 -0.24,1.798 -0.119,0.839 -1.558,0.119 -1.918,0.36 -0.361,0.24 -2.279,-0.12 -3.117,0.12 -0.839,0.24 -1.438,-0.24 -2.398,-0.12 -0.96,0.12 -1.919,0.001 -2.518,0.24 -0.599,0.239 -1.198,0.36 -2.038,1.199 -0.838,0.839 -1.438,0.359 -1.319,1.918 0.121,1.559 -0.48,1.798 0,3.237 0.48,1.438 -1.079,0.959 -2.397,0 -1.319,-0.959 -1.918,0.12 -2.518,0.239 -0.599,0.12 -0.478,-0.839 -0.599,-1.318 -0.121,-0.479 1.319,-1.917 1.798,-2.158 0.48,-0.24 -1.199,-0.719 -1.199,-0.719 0,0 -0.12,-0.84 -0.12,-1.319 0,-0.479 -0.479,-0.6 -0.839,-0.36 -0.359,0.24 -0.479,-0.479 -0.839,0.12 -0.359,0.599 -0.719,0.96 -1.079,1.439 -0.359,0.479 -0.839,1.678 -1.078,2.157 -0.24,0.48 -0.96,0.959 -1.199,1.199 -0.24,0.24 -0.479,1.439 -0.479,2.518 0,1.079 -0.96,1.678 -1.799,1.558 -0.838,-0.119 -0.959,0.6 -2.038,1.32 -1.078,0.719 -0.839,0.958 -2.038,1.678 -1.199,0.72 -2.037,1.558 -3.356,1.798 -1.32,0.24 -0.601,-0.839 -0.361,-1.678 0.242,-0.84 0.481,-0.6 1.32,-1.559 0.84,-0.959 1.198,-1.318 1.198,-1.318 0,0 1.799,-1.2 2.519,-1.32 0.719,-0.119 2.157,-2.158 2.756,-2.518 0.601,-0.359 0.361,-0.119 0.122,-0.598 -0.241,-0.48 -0.6,0 -1.2,0.359 -0.599,0.36 -0.479,-0.478 -0.599,-1.198 -0.12,-0.719 0,-0.6 0,-0.6 0,0 -2.278,-2.397 -2.637,-2.757 -0.359,-0.36 -1.199,0.24 -1.799,0.719 -0.599,0.48 0.959,10e-4 1.559,0.24 0.599,0.239 1.798,1.677 2.038,2.157 0.239,0.48 -0.6,0.72 -0.6,0.72 0,0 -0.839,0.839 -0.959,1.199 -0.12,0.359 -1.078,0.839 -2.038,1.678 -0.959,0.839 -1.438,0.6 -1.918,0.839 -0.479,0.24 -1.079,0.599 -1.799,0.959 -0.719,0.359 -1.198,1.918 -1.558,2.278 -0.36,0.359 -0.838,0.12 -0.838,0.12 0,0 -0.96,-0.24 -1.319,0.359 -0.36,0.6 -0.838,0.12 -0.599,-1.439 0.238,-1.558 -3.118,-0.359 -3.717,-0.239 -0.6,0.121 -1.798,-1.199 -1.798,-1.199 l -1.438,-2.157 c 0,0 -1.32,-0.36 -1.918,-0.72 -0.6,-0.359 -1.679,-2.157 -1.32,-2.877 0.36,-0.719 -0.118,-0.959 -0.838,-1.678 -0.72,-0.719 -3.118,-1.558 -3.717,-2.278 -0.599,-0.719 -1.559,-0.479 -2.518,0.121 -0.959,0.599 -1.678,0.239 -2.037,0.359 -0.36,0.12 -2.038,0.359 -2.038,0.359 0,0 -0.72,0.481 -0.96,1.559 -0.239,1.08 -0.239,1.798 0.12,2.518 0.361,0.72 0.24,2.158 0.121,3.237 -0.121,1.078 0.119,2.037 1.199,2.877 1.078,0.839 0,0.599 1.558,0.479 1.559,-0.119 2.516,-0.479 3.835,-1.199 1.319,-0.719 2.039,0.121 2.519,0.36 0.479,0.24 0.478,-0.48 1.078,0.599 0.599,1.08 -0.24,1.319 0.36,2.159 0.599,0.839 -0.36,0.718 -0.36,0.718 0,0 -0.599,1.439 -0.958,1.559 -0.361,0.121 -0.72,0.6 -1.439,1.08 -0.719,0.478 -1.799,1.078 1.558,0.958 3.356,-0.12 -1.079,1.199 -1.318,1.678 -0.24,0.48 0.719,0.96 2.038,0.72 1.318,-0.24 0.598,0 1.198,0.12 0.6,0.12 0.48,0.239 1.559,0.359 1.079,0.12 0.958,0.359 1.439,0.479 0.478,0.12 0.719,1.079 2.037,2.159 1.319,1.078 0.359,0 1.679,0.479 1.318,0.479 0.359,1.918 1.079,2.157 0.72,0.24 1.318,0.6 2.757,0.72 1.438,0.119 0,0 0.359,0.119 0.359,0.121 1.078,1.438 2.038,1.919 0.96,0.48 0.239,-0.36 0.72,-0.719 0.479,-0.36 1.558,-0.12 2.277,0.359 0.72,0.479 1.439,0.24 2.637,0 1.199,-0.239 0.6,-0.959 1.199,-0.959 0.6,0 1.079,-0.359 1.439,0.12 0.359,0.48 1.558,1.08 2.158,1.08 0.598,0 1.679,-0.121 1.679,-0.121 0,0 0.717,-0.12 1.078,-0.12 0.36,0 2.157,1.198 1.918,2.996 -0.24,1.799 1.319,0.6 2.038,0.481 0.718,-0.12 1.678,0.479 0.839,2.877 -0.839,2.397 0.6,0.718 1.558,0.479 0.959,-0.239 2.277,0.48 2.877,1.079 0.6,0.6 -0.239,1.319 -0.6,1.559 -0.359,0.239 -1.557,-0.24 -2.277,-0.12 -0.719,0.12 -1.918,-0.36 -2.517,-0.36 -0.599,0 -1.918,1.919 -1.678,2.158 0.239,0.239 1.318,2.158 1.918,2.877 0.598,0.719 0.12,1.199 0.12,1.199 0,0 -0.239,1.559 -3.836,-0.719 -3.597,-2.279 -2.038,-1.079 -2.277,-2.277 -0.24,-1.2 -0.6,-1.56 -0.6,-2.758 0,-1.2 1.199,-1.799 1.199,-1.799 0,0 -1.678,-1.918 -1.678,-2.757 0,-0.839 -2.637,-2.517 -2.637,-2.517 0,0 -1.199,-0.839 -1.44,-0.48 -0.239,0.36 -2.157,0.24 -2.037,1.918 0.12,1.679 -1.558,1.438 -4.196,3.237 -2.637,1.798 -2.277,-0.119 -2.877,-0.719 -0.599,-0.6 -0.839,3.716 -0.12,4.915 0.72,1.199 0,0 0.72,0.12 0.719,0.12 1.678,0.12 2.637,0.599 0.959,0.479 0.48,1.078 0.72,1.798 0.239,0.72 2.757,2.637 3.477,3.237 0.719,0.599 3.236,2.278 4.195,3.117 0.959,0.839 2.038,1.318 3.476,2.397 1.44,1.079 2.039,0.839 3.118,0.959 1.079,0.12 1.919,-0.12 3.117,-0.239 1.198,-0.12 2.397,0.119 3.236,-0.12 0.839,-0.24 2.157,-0.479 5.275,-0.959 3.117,-0.48 0.839,-0.24 3.117,-1.079 2.277,-0.839 2.396,-0.36 3.836,-1.079 1.439,-0.719 0.358,-1.318 0.12,-1.918 -0.238,-0.6 -1.798,-0.838 -2.757,0 -0.959,0.839 -1.798,0.121 -3.597,-0.239 -1.799,-0.361 2.757,-2.638 3.597,-3.956 0.838,-1.319 2.278,0.359 4.795,2.397 2.517,2.038 1.918,1.198 3.956,2.157 2.038,0.959 3.478,0.839 3.956,1.558 0.48,0.72 2.877,0.719 3.477,0 0.599,-0.718 2.277,0.72 2.997,0.121 0.719,-0.6 1.319,0.958 3.117,1.798 1.798,0.839 1.316,0 2.876,-1.079 1.559,-1.079 1.319,-0.241 2.158,-0.84 0.652,-0.464 2.891,-0.853 4.478,-0.332 -21.724,32.834 -58.976,54.496 -101.294,54.496 -38.458,0 -72.733,-17.89 -94.971,-45.797 0.862,0.093 1.811,0.355 2.614,-0.333 1.259,-1.079 2.697,-2.337 3.776,-2.697 1.079,-0.36 2.337,0.899 3.417,0.36 1.078,-0.54 4.855,2.697 4.135,0.179 -0.719,-2.518 0.899,-3.236 -1.079,-3.416 -1.978,-0.18 -4.136,-1.619 -5.035,-1.08 -0.899,0.54 -1.619,1.08 -3.057,0.36 -1.439,-0.72 -0.719,-0.719 -2.337,-0.36 -1.619,0.36 -1.978,-0.359 -2.338,0.18 -0.36,0.539 -1.438,0.36 -1.259,1.978 0.18,1.619 0.719,1.439 -0.36,1.439 -0.392,0 -0.76,-0.023 -1.105,-0.027 -0.878,-1.187 -1.735,-2.392 -2.571,-3.61 1.16,-0.052 2.062,-0.104 2.178,-0.142 0.359,-0.12 -0.359,-1.079 0,-1.079 0.359,0 1.079,-0.6 2.158,-0.6 1.078,0 2.037,-0.6 2.397,-0.479 0.359,0.12 1.439,-1.559 1.439,-1.199 0,0.36 1.077,1.319 1.797,2.038 0.72,0.72 1.679,0.12 2.518,0.24 0.838,0.12 4.076,0.12 5.154,0 1.079,-0.12 1.918,-0.839 2.518,-0.839 0.6,0 0.719,-0.119 1.439,-0.719 0.719,-0.6 3.597,1.918 4.436,4.315 0.839,2.398 1.918,1.559 3.117,2.039 1.198,0.479 0.479,-1.08 0.599,-2.159 0.119,-1.079 0.119,-0.72 0.959,-0.959 0.839,-0.239 0.719,-0.359 0.719,-0.359 0,0 -0.36,-0.959 -0.24,-1.558 0.119,-0.6 0.24,-0.479 1.678,0.24 1.439,0.719 0.84,0 2.877,0.959 2.038,0.958 1.2,1.198 1.799,1.079 0.599,-0.121 1.079,0.239 0.959,-0.96 -0.12,-1.199 -1.557,-1.679 -2.397,-2.158 -0.84,-0.479 -2.279,-0.36 -3.238,-0.838 -0.958,-0.48 -2.038,-0.838 -2.877,-1.798 -0.838,-0.96 -0.839,-0.12 -0.959,0.239 -0.12,0.359 -0.959,0.72 -1.438,0.959 -0.48,0.24 -0.24,-1.439 -0.24,-1.439 0,0 -0.119,-1.079 -0.599,-1.678 -0.48,-0.599 -1.918,-0.479 -2.758,-0.719 -0.839,-0.24 -3.716,-1.559 -5.394,-2.158 -1.678,-0.599 -4.915,-3.476 -5.155,-4.076 -0.24,-0.599 -0.12,-2.157 0.12,-2.877 0.24,-0.72 2.637,-1.558 2.517,-2.037 -0.119,-0.48 7.553,-1.679 7.553,-1.679 l -1.079,-1.079 c 0,0 -0.719,-2.636 -0.12,-3.356 0.599,-0.72 2.397,-1.079 3.117,-0.839 0.72,0.24 1.319,2.518 1.319,3.476 0,0.959 1.558,1.079 1.558,1.079 0,0 1.679,1.079 3.597,1.318 1.918,0.24 0.239,1.319 0.599,5.036 0.359,3.716 1.077,1.437 1.558,1.678 0.48,0.24 2.996,2.517 3.476,3.237 0.48,0.719 2.158,-0.36 2.877,-0.36 0.72,0 2.638,-0.241 3.117,-1.439 0.479,-1.198 0.72,-0.718 0.36,-1.558 -0.36,-0.839 0.599,-2.637 1.319,-2.278 0.719,0.36 4.075,2.038 4.675,2.398 0.599,0.359 0.838,0 1.199,-0.12 0.359,-0.121 0,-1.558 0,-1.558 0,0 0.12,-0.721 -0.24,-2.398 -0.36,-1.678 0.12,-1.439 0.599,-1.798 0.48,-0.359 0.359,-0.6 1.319,-2.158 0.959,-1.559 0.599,-0.119 1.078,0.12 0.48,0.24 1.079,-0.839 1.678,-1.319 0.599,-0.479 -0.479,-1.558 -0.479,-1.558 0,0 -0.959,-0.718 -1.199,-1.198 -0.24,-0.481 -1.917,-1.439 -2.757,-2.039 -0.84,-0.599 -2.278,-0.359 -3.356,-0.359 -1.079,0 -5.755,-0.12 -7.673,-0.6 -1.918,-0.479 -3.476,-1.198 -3.956,-1.438 -0.479,-0.241 -0.719,-1.318 0,-1.199 0.72,0.12 1.558,-0.119 1.919,0 0.359,0.119 3.117,0.719 4.195,0.24 1.079,-0.48 -0.599,-0.839 -1.918,-2.037 -1.319,-1.2 0.48,-1.08 1.678,-1.44 1.199,-0.36 1.079,-0.239 2.877,0.479 1.799,0.72 0.84,0.24 1.319,-0.12 0.48,-0.359 -0.359,-1.078 -0.359,-1.078 0,0 -0.121,-0.239 -1.919,-0.839 -1.798,-0.6 -1.198,-0.121 -2.038,-0.24 -0.839,-0.119 -0.718,-0.479 -2.996,-2.278 -2.279,-1.798 -1.918,-0.24 -1.439,0.959 0.479,1.198 -1.079,0.359 1.319,1.798 2.398,1.439 -0.241,0.24 -1.08,0 -0.838,-0.24 -2.876,-1.318 -3.476,-1.318 -0.599,0 -2.157,-1.439 -3.356,-2.398 -1.199,-0.959 -1.199,-1.199 -1.199,-2.277 0,-1.08 -1.918,-0.481 -2.278,-0.481 -0.359,0 -2.637,-1.078 -2.518,-1.678 0.12,-0.598 -1.557,-1.558 -1.557,-1.558 0,0 -1.559,-1.198 -1.679,-1.678 -0.121,-0.479 -2.397,-2.157 -2.518,-3.116 -0.12,-0.96 -0.839,-1.319 -0.839,-1.319 0,0 -1.917,-1.319 -2.757,-1.798 -0.839,-0.48 -4.315,-2.877 -5.754,-3.956 -1.439,-1.078 -1.438,-1.558 -1.198,-2.398 0.239,-0.839 -0.36,-1.559 0.479,-4.076 0.839,-2.517 -0.36,-3.237 -0.36,-3.237 0,0 -0.719,-0.958 -1.078,-1.318 -0.36,-0.36 -1.199,1.439 -1.199,1.439 0,0 -0.599,1.319 -0.599,3.477 0,2.157 -0.48,0.958 -0.48,1.318 0,0.36 -0.599,0.36 -0.479,0.719 0.119,0.359 -1.079,0.479 -1.918,1.198 -0.839,0.72 -1.319,0.121 -1.558,0.48 -0.24,0.359 -1.799,-0.12 -1.799,0.24 0,0.36 -0.959,-0.12 -1.918,-1.678 -0.958,-1.559 -1.079,-0.959 -1.678,-0.839 -0.599,0.119 -1.679,-0.361 -1.918,0.958 -0.24,1.319 -1.798,0 -2.397,0 -0.599,0 -1.32,-0.239 -2.158,-0.479 -0.839,-0.24 -1.679,-0.84 -2.158,-1.319 -0.479,-0.479 -2.278,-1.079 -2.637,-1.558 -0.36,-0.48 -0.72,-1.678 -0.6,-2.038 0.121,-0.36 -1.318,-2.757 -1.198,-3.357 0.119,-0.599 -1.199,-3.117 -1.199,-3.956 0,-0.838 0.24,-2.637 0.719,-3.476 0.48,-0.839 2.997,-2.158 3.596,-2.278 0.6,-0.119 2.398,-0.24 2.398,-0.24 0,0 1.438,0.72 2.158,0.96 0.719,0.24 1.319,1.799 1.918,3.237 0.599,1.438 0.48,0.598 1.198,0.959 0.72,0.359 1.919,0.118 2.638,-0.361 0.719,-0.478 0.359,-0.598 0.359,-0.958 0,-0.359 -1.079,-2.997 -1.318,-3.596 -0.24,-0.599 -1.798,-4.315 -1.559,-4.196 0.24,0.12 1.559,0.48 2.638,0.48 1.079,0 2.757,-0.119 3.596,-0.599 0.839,-0.48 0.119,-0.6 0.24,-1.079 0.12,-0.48 0,-2.278 -0.36,-3.717 -0.36,-1.438 0.12,-2.757 0.12,-3.596 0,-0.839 0.599,-1.318 0.599,-1.318 0,0 1.319,-1.559 1.919,-1.678 0.6,-0.12 0.959,-0.84 0.959,-0.84 l 0.839,-1.198 -1.56,0.478 -1.439,1.079 -1.798,0.36 c 0,0 -1.318,1.198 -1.677,1.437 -0.36,0.241 -0.84,0.6 -0.84,1.439 0,0.839 -0.239,0.719 -0.359,1.679 -0.12,0.959 -0.96,0.959 -1.319,1.558 -0.359,0.599 -0.719,0.958 -1.198,1.558 -0.48,0.6 -0.719,0.119 -1.198,0.24 -0.48,0.12 -0.48,0.12 -1.2,0.12 -0.719,0 -1.198,0 -1.797,0.48 -0.6,0.479 -1.199,0.359 -1.799,0.958 -0.599,0.599 -0.959,0.599 -1.318,1.079 -0.36,0.48 -1.079,0.48 -1.439,1.079 -0.36,0.6 -1.199,-0.12 -1.558,0.12 -0.36,0.239 -1.319,-0.479 -1.319,-0.479 0,0 -1.079,0 -1.439,0.119 -0.359,0.12 -1.317,0.36 -1.317,0.36 0,0 -0.088,0.014 -0.222,0.039 3.814,-32.024 20.094,-60.219 43.853,-79.597 -0.091,1.318 -0.224,2.908 -0.356,3.438 -0.239,0.96 0.36,2.996 -0.24,4.795 -0.6,1.799 0.12,3.955 -0.24,4.675 -0.36,0.719 0.24,2.756 -0.12,4.674 -0.359,1.918 1.439,4.316 0,5.035 -1.438,0.719 -0.359,1.798 -1.558,1.798 -1.199,0 -2.038,0.6 -3.117,1.439 -1.079,0.839 -3.117,2.398 -3.716,2.998 -0.599,0.599 -2.518,2.157 -3.117,2.637 -0.599,0.479 -1.199,2.517 -1.678,3.117 -0.48,0.599 -0.719,2.396 -1.439,3.475 -0.719,1.08 -1.678,2.877 -1.918,3.237 -0.24,0.36 -2.877,3.476 -2.877,3.476 l 0.239,1.918 c 0,0 1.799,1.079 1.559,1.439 -0.24,0.359 0.12,0.72 -0.72,1.438 -0.84,0.719 -0.719,2.039 0,2.638 0.72,0.6 1.798,2.518 1.798,2.518 l 1.798,2.997 c 0,0 1.439,1.559 1.439,2.637 0,1.079 2.038,1.798 0.839,2.757 -1.199,0.959 -0.599,1.799 -0.959,2.518 -0.36,0.72 -0.12,1.198 0.959,1.918 1.079,0.72 2.997,3.357 2.997,3.357 0,0 1.439,0.359 1.798,0.359 0.36,0 0.959,3.837 2.039,1.32 1.079,-2.518 1.438,-1.199 1.079,-2.997 -0.36,-1.798 0.479,-1.439 0.958,-0.96 0.48,0.479 -0.24,-0.359 0.719,1.799 0.959,2.159 0.6,2.877 1.199,2.277 0.599,-0.6 0.839,-0.719 1.918,-1.079 1.079,-0.36 1.439,-0.239 1.797,-0.959 0.36,-0.719 0.241,0.24 2.278,-0.12 2.038,-0.36 4.915,0.719 4.556,-0.479 -0.138,-0.458 -0.327,-0.548 -0.416,-0.558 0.106,-0.028 0.397,-0.156 1.015,-0.64 1.678,-1.319 1.919,-1.559 2.877,-1.799 0.959,-0.241 1.798,-0.12 3.237,-1.558 1.439,-1.439 1.798,-1.559 2.158,-2.277 0.359,-0.719 0.959,-0.241 1.558,-0.96 0.6,-0.718 1.439,-0.719 2.278,-0.719 0.838,0 0,0.719 1.318,-0.24 1.319,-0.96 2.278,-1.078 2.877,-2.997 0.599,-1.918 1.798,-1.798 0.839,-3.717 -0.959,-1.918 -2.876,-2.757 -2.037,-2.637 0.838,0.12 2.397,0.84 2.877,0.719 0.479,-0.119 0.718,0.36 1.438,0 0.72,-0.359 0.839,0.479 0.72,-0.359 -0.12,-0.839 -0.121,0 -0.121,-0.84 0,-0.059 -0.001,-0.103 -0.003,-0.139 0.048,0.244 0.279,0.85 1.202,0.619 1.439,-0.36 0.599,0.72 2.278,-0.839 1.678,-1.559 1.678,-1.08 2.277,-1.919 0.6,-0.838 1.199,0.479 1.559,0.121 0.36,-0.359 1.439,-0.12 2.518,-0.36 1.078,-0.241 0.359,0.719 2.038,-0.36 1.678,-1.078 3.356,-0.718 3.716,-1.677 0.359,-0.96 1.319,-0.6 1.797,-1.2 0.479,-0.599 0.72,0.241 1.2,-0.599 0.479,-0.839 1.918,-0.599 1.678,-1.438 -0.24,-0.84 0.359,-0.36 0.119,-1.558 -0.24,-1.199 -1.079,-3.119 -1.797,-3.597 -0.719,-0.479 -0.72,-1.079 -1.2,-1.678 -0.479,-0.599 -0.359,0.599 -0.959,-1.079 -0.599,-1.679 -0.479,-1.919 -0.958,-3.476 -0.48,-1.558 -0.12,0 -0.48,-1.559 -0.359,-1.559 -0.119,-2.518 -0.479,-4.316 -0.359,-1.798 -0.239,-1.798 -0.479,-3.117 -0.24,-1.319 0.599,0.599 -0.48,-2.158 -1.079,-2.758 -1.198,-2.637 -1.558,-3.836 -0.36,-1.199 0.12,-0.239 -1.199,-0.959 -1.319,-0.72 -0.599,-0.479 -2.158,-0.959 -1.558,-0.479 -3.476,-0.96 -4.075,-1.079 -0.599,-0.119 -2.997,-0.839 -2.278,-2.277 0.72,-1.438 0.72,-1.679 0,-3.478 -0.719,-1.798 -1.798,-2.397 -1.798,-3.235 0,-0.839 -0.479,-1.678 -0.599,-2.277 -0.12,-0.6 1.079,0.599 -0.359,-1.2 -1.438,-1.799 -1.559,-1.318 -2.038,-2.397 -0.48,-1.079 0,-0.239 -0.48,-1.079 -0.479,-0.839 -1.678,-1.198 -1.678,-1.198 0,0 0.119,-0.6 -0.36,-0.36 -0.48,0.239 -0.36,-0.12 -2.158,0.36 -1.799,0.48 -2.038,1.677 -2.278,0.838 -0.239,-0.838 0.12,-1.319 1.199,-2.158 1.079,-0.839 2.877,-1.078 2.397,-1.918 -0.479,-0.84 -0.479,-0.84 -0.838,-1.319 -0.361,-0.48 0.479,-0.119 -0.361,-0.48 -0.839,-0.36 -1.318,-1.918 -1.678,-1.918 -0.359,0 -0.599,-0.599 -1.079,-0.36 -0.479,0.24 -1.678,1.079 -1.918,0.601 -0.24,-0.48 -0.719,0.599 -0.6,-1.079 0.016,-0.211 0.033,-0.412 0.05,-0.6 17.792,-10.232 38.424,-16.085 60.422,-16.085 35.471,0 67.385,15.219 89.578,39.479 l -1.157,1.781 c 0,0 -10e-4,2.517 -0.121,3.356 -0.12,0.84 0.479,1.08 1.079,1.32 0.6,0.239 0.959,1.437 0.959,2.396 0,0.959 0,1.679 0.12,2.039 0.12,0.359 0,1.678 -0.36,2.757 -0.359,1.079 0.72,0.839 0.72,0.839 0,0 1.198,0.599 1.678,0.719 0.48,0.12 1.318,0.839 1.318,0.839 l 2.399,1.2 c 0,0 1.318,1.917 1.677,3.236 v 0 0 0 l 0.84,-2.639 c 0,0 0,-0.96 0,-1.438 0,-0.48 -0.12,-0.96 -0.359,-1.439 -0.241,-0.479 -0.361,-2.159 -0.48,-2.878 -0.12,-0.717 -0.959,-1.675 -0.959,-2.276 0,-0.536 -0.95,-1.925 -1.154,-2.474 16.039,20.576 25.598,46.45 25.598,74.559 0,0.062 -0.002,0.124 -0.002,0.187 -0.397,0.206 -0.704,0.378 -0.704,0.378 z"
       style="fill:none;stroke:#299540;stroke-width:1;stroke-linecap:butt;stroke-linejoin:miter;stroke-miterlimit:10;stroke-dasharray:none;stroke-opacity:1"
       id="path50" /></g></svg>
